# 3ds Max Wavefront OBJ Exporter v0.97b - (c)2007 guruware
# File Created: 09.05.2015 21:59:11

mtllib Shoulder right.mtl

#
# object Object054
#

v  -0.2788 0.2008 -1.9352
v  0.4782 0.1646 -2.1349
v  0.7051 -1.1129 -1.7562
v  -0.2001 -0.4790 -1.7482
v  0.7639 -1.7488 -1.1703
v  -0.1316 -1.8072 -0.5667
v  -0.1051 -1.2250 -1.5170
v  0.7612 -1.4649 -1.6465
v  0.7540 -2.0267 1.1436
v  -0.1332 -1.9459 0.5957
v  0.6886 -1.8769 1.6262
v  -0.2479 -1.6234 1.5628
v  0.8060 -1.5964 1.8694
v  0.0392 -1.0790 2.0453
v  0.8607 -0.3324 2.3040
v  0.0934 -0.4326 2.2626
v  -0.0664 0.7246 -1.7950
v  0.8296 1.2636 -1.8760
v  0.1871 1.6062 -1.4709
v  0.9226 1.7121 -1.7140
v  0.1521 1.5647 -0.3153
v  0.9383 1.5664 0.5972
v  0.1343 1.5019 1.3479
v  0.9162 1.5467 1.4288
v  0.0416 0.8599 1.6274
v  0.8308 0.2702 1.9859
v  -1.0107 -0.9363 -1.5850
v  -1.0491 -1.9481 0.0481
v  -2.2934 -1.0836 0.0808
v  -2.0891 -0.2421 -1.3519
v  -1.0674 0.3716 -1.9650
v  -1.8170 0.7715 -1.6473
v  -1.2385 -1.3793 1.7128
v  -2.1490 -0.6854 1.5096
v  -0.7236 -0.4494 2.3076
v  -1.8810 0.1058 2.1436
v  -0.6089 1.7273 -1.2979
v  -1.4498 1.9851 -1.1276
v  -0.6694 1.7151 1.3824
v  -1.4783 1.9674 1.2608
v  -2.7140 -0.2032 0.1048
v  -2.5182 0.3922 -0.9603
v  -2.2724 1.1208 -1.1965
v  -2.6029 0.0677 1.1776
v  -2.3768 0.6280 1.6938
v  -1.9490 2.0267 -0.8255
v  -1.9737 1.9970 1.0033
v  -2.7802 0.7782 0.1344
v  -2.6964 1.0100 -0.2838
v  -2.5927 1.3013 -0.3801
v  -2.7397 0.8962 0.5583
v  -2.6495 1.1342 0.7718
v  -2.4547 1.6742 -0.2378
v  -2.4654 1.6463 0.4925
v  1.5719 -1.5998 -1.7774
v  1.1723 0.2466 -2.3454
v  1.8011 0.1810 -1.8106
v  2.1171 -1.2033 -1.3772
v  1.5647 -2.0181 1.6935
v  2.1116 -1.5241 1.2712
v  1.6024 -0.1515 2.3454
v  2.1340 -0.1005 1.7686
v  1.6497 1.9319 -1.9571
v  2.1539 1.4780 -1.5143
v  1.6697 1.7261 1.5097
v  2.1667 1.3223 1.1310
v  2.3664 0.1326 -1.1272
v  2.5620 -0.6986 -0.8658
v  2.5593 -0.8927 0.7316
v  2.5698 -0.0310 1.0316
v  2.5721 0.9153 -0.9485
v  2.5795 0.8259 0.6470
v  2.6459 0.1609 -0.7539
v  2.7726 -0.3708 -0.5864
v  2.7716 -0.4937 0.4368
v  2.7767 0.0577 0.6290
v  2.7751 0.6623 -0.6394
v  2.7802 0.6072 0.3826
# 78 vertices

vn -0.0884 -0.0200 -0.9959
vn -0.2744 -0.0171 -0.9615
vn -0.2227 -0.3208 -0.9206
vn -0.1201 -0.2891 -0.9497
vn -0.1054 -0.9431 -0.3153
vn -0.1204 -0.9370 -0.3278
vn -0.2194 -0.6158 -0.7567
vn -0.2518 -0.6172 -0.7454
vn -0.2518 -0.6172 -0.7454
vn -0.2194 -0.6158 -0.7567
vn -0.1201 -0.2891 -0.9497
vn -0.2227 -0.3208 -0.9206
vn -0.0871 -0.9935 0.0734
vn -0.1010 -0.9910 0.0881
vn -0.1204 -0.9370 -0.3278
vn -0.1054 -0.9431 -0.3153
vn -0.0871 -0.9935 0.0734
vn -0.2178 -0.8116 0.5421
vn -0.1803 -0.8227 0.5391
vn -0.1010 -0.9910 0.0881
vn -0.1803 -0.8227 0.5391
vn -0.2178 -0.8116 0.5421
vn -0.0876 -0.4733 0.8766
vn -0.0646 -0.4591 0.8861
vn -0.0625 0.0592 0.9963
vn -0.0012 0.0554 0.9985
vn -0.0646 -0.4591 0.8861
vn -0.0876 -0.4733 0.8766
vn -0.2744 -0.0171 -0.9615
vn -0.0884 -0.0200 -0.9959
vn -0.1454 0.3579 -0.9224
vn -0.3298 0.3454 -0.8786
vn -0.1586 0.8353 -0.5264
vn -0.3472 0.8038 -0.4831
vn -0.3298 0.3454 -0.8786
vn -0.1454 0.3579 -0.9224
vn -0.3472 0.8038 -0.4831
vn -0.1586 0.8353 -0.5264
vn 0.0619 0.9974 0.0365
vn -0.1648 0.9853 0.0446
vn 0.0647 0.8177 0.5720
vn -0.1812 0.8115 0.5556
vn -0.1648 0.9853 0.0446
vn 0.0619 0.9974 0.0365
vn -0.1812 0.8115 0.5556
vn 0.0647 0.8177 0.5720
vn 0.0195 0.4061 0.9136
vn -0.1385 0.4274 0.8934
vn -0.0012 0.0554 0.9985
vn -0.0625 0.0592 0.9963
vn -0.1385 0.4274 0.8934
vn 0.0195 0.4061 0.9136
vn -0.5284 -0.7074 -0.4695
vn -0.5284 -0.7074 -0.4695
vn -0.5284 -0.7074 -0.4695
vn -0.5284 -0.7074 -0.4695
vn -0.4005 -0.2215 -0.8891
vn -0.4005 -0.2215 -0.8891
vn -0.4005 -0.2215 -0.8891
vn -0.4005 -0.2215 -0.8891
vn -0.5818 -0.7787 0.2350
vn -0.5818 -0.7787 0.2350
vn -0.5818 -0.7787 0.2350
vn -0.5818 -0.7787 0.2350
vn -0.3933 -0.4090 0.8234
vn -0.3933 -0.4090 0.8234
vn -0.3933 -0.4090 0.8234
vn -0.3933 -0.4090 0.8234
vn -0.0913 0.4416 -0.8925
vn -0.0913 0.4416 -0.8925
vn -0.0913 0.4416 -0.8925
vn -0.0913 0.4416 -0.8925
vn 0.2957 0.9552 0.0108
vn 0.2957 0.9552 0.0108
vn 0.2957 0.9552 0.0108
vn 0.2957 0.9552 0.0108
vn 0.0342 0.4062 0.9132
vn 0.0342 0.4062 0.9132
vn 0.0342 0.4062 0.9132
vn 0.0342 0.4062 0.9132
vn -0.8533 -0.3810 -0.3559
vn -0.8533 -0.3810 -0.3559
vn -0.8533 -0.3810 -0.3559
vn -0.8533 -0.3810 -0.3559
vn -0.6965 -0.0119 -0.7174
vn -0.6965 -0.0119 -0.7174
vn -0.6965 -0.0119 -0.7174
vn -0.6965 -0.0119 -0.7174
vn -0.8784 -0.4316 0.2052
vn -0.8784 -0.4316 0.2052
vn -0.8784 -0.4316 0.2052
vn -0.8784 -0.4316 0.2052
vn -0.7777 -0.2176 0.5898
vn -0.7777 -0.2176 0.5898
vn -0.7777 -0.2176 0.5898
vn -0.7777 -0.2176 0.5898
vn -0.4231 0.4647 -0.7778
vn -0.4231 0.4647 -0.7778
vn -0.4231 0.4647 -0.7778
vn -0.4231 0.4647 -0.7778
vn 0.0719 0.9973 0.0121
vn 0.0719 0.9973 0.0121
vn 0.0719 0.9973 0.0121
vn 0.0719 0.9973 0.0121
vn -0.3180 0.4781 0.8187
vn -0.3180 0.4781 0.8187
vn -0.3180 0.4781 0.8187
vn -0.3180 0.4781 0.8187
vn -0.9753 -0.0544 -0.2142
vn -0.9753 -0.0544 -0.2142
vn -0.9753 -0.0544 -0.2142
vn -0.9753 -0.0544 -0.2142
vn -0.9004 0.1793 -0.3965
vn -0.9004 0.1793 -0.3965
vn -0.9004 0.1793 -0.3965
vn -0.9004 0.1793 -0.3965
vn -0.9903 -0.0722 0.1190
vn -0.9903 -0.0722 0.1190
vn -0.9903 -0.0722 0.1190
vn -0.9903 -0.0722 0.1190
vn -0.9437 0.0808 0.3206
vn -0.9437 0.0808 0.3206
vn -0.9437 0.0808 0.3206
vn -0.9437 0.0808 0.3206
vn -0.7924 0.4508 -0.4109
vn -0.7924 0.4508 -0.4109
vn -0.7924 0.4508 -0.4109
vn -0.7924 0.4508 -0.4109
vn -0.5756 0.8177 0.0104
vn -0.5756 0.8177 0.0104
vn -0.5756 0.8177 0.0104
vn -0.5756 0.8177 0.0104
vn -0.7563 0.4705 0.4545
vn -0.7563 0.4705 0.4545
vn -0.7563 0.4705 0.4545
vn -0.7563 0.4705 0.4545
vn 0.6366 -0.0962 -0.7652
vn 0.6366 -0.0962 -0.7652
vn 0.6366 -0.0962 -0.7652
vn 0.6366 -0.0962 -0.7652
vn 0.6282 -0.7726 -0.0920
vn 0.6282 -0.7726 -0.0920
vn 0.6282 -0.7726 -0.0920
vn 0.6282 -0.7726 -0.0920
vn 0.7222 -0.2398 0.6488
vn 0.7222 -0.2398 0.6488
vn 0.7222 -0.2398 0.6488
vn 0.7222 -0.2398 0.6488
vn 0.6514 -0.0072 -0.7587
vn 0.6514 -0.0072 -0.7587
vn 0.6514 -0.0072 -0.7587
vn 0.6514 -0.0072 -0.7587
vn 0.6485 0.7601 0.0415
vn 0.6485 0.7601 0.0415
vn 0.6485 0.7601 0.0415
vn 0.6485 0.7601 0.0415
vn 0.7033 0.2719 0.6568
vn 0.7033 0.2719 0.6568
vn 0.7033 0.2719 0.6568
vn 0.7033 0.2719 0.6568
vn 0.7678 -0.0235 -0.6402
vn 0.7678 -0.0235 -0.6402
vn 0.7678 -0.0235 -0.6402
vn 0.7678 -0.0235 -0.6402
vn 0.7833 -0.6173 -0.0733
vn 0.7833 -0.6173 -0.0733
vn 0.7833 -0.6173 -0.0733
vn 0.7833 -0.6173 -0.0733
vn 0.8526 -0.1831 0.4895
vn 0.8526 -0.1831 0.4895
vn 0.8526 -0.1831 0.4895
vn 0.8526 -0.1831 0.4895
vn 0.7694 -0.0614 -0.6358
vn 0.7694 -0.0614 -0.6358
vn 0.7694 -0.0614 -0.6358
vn 0.7694 -0.0614 -0.6358
vn 0.7851 0.6186 0.0320
vn 0.7851 0.6186 0.0320
vn 0.7851 0.6186 0.0320
vn 0.7851 0.6186 0.0320
vn 0.8357 0.2117 0.5068
vn 0.8357 0.2117 0.5068
vn 0.8357 0.2117 0.5068
vn 0.8357 0.2117 0.5068
vn 0.7997 0.0002 -0.6005
vn 0.7997 0.0002 -0.6005
vn 0.7997 0.0002 -0.6005
vn 0.7997 0.0002 -0.6005
vn 0.8623 -0.5029 -0.0596
vn 0.8623 -0.5029 -0.0596
vn 0.8623 -0.5029 -0.0596
vn 0.8623 -0.5029 -0.0596
vn 0.8912 -0.1580 0.4252
vn 0.8912 -0.1580 0.4252
vn 0.8912 -0.1580 0.4252
vn 0.8912 -0.1580 0.4252
vn 0.8026 -0.0742 -0.5919
vn 0.8026 -0.0742 -0.5919
vn 0.8026 -0.0742 -0.5919
vn 0.8026 -0.0742 -0.5919
vn 0.7580 0.6515 0.0323
vn 0.7580 0.6515 0.0323
vn 0.7580 0.6515 0.0323
vn 0.7580 0.6515 0.0323
vn 0.8522 0.2075 0.4803
vn 0.8522 0.2075 0.4803
vn 0.8522 0.2075 0.4803
vn 0.8522 0.2075 0.4803
vn -0.9388 0.3446 -0.0006
vn -0.9412 0.3378 -0.0009
vn -0.9391 0.3437 0.0026
vn -0.9396 0.3422 0.0023
vn -0.9424 0.3345 -0.0034
vn -0.9397 0.3419 0.0005
vn -0.9313 0.3641 -0.0124
vn 0.9954 -0.0623 -0.0729
vn 1.0000 -0.0080 -0.0039
vn 0.9973 0.0437 -0.0585
vn 0.9702 0.2405 0.0298
vn 0.9990 -0.0254 -0.0363
vn 0.9692 -0.2456 -0.0181
vn -0.2920 0.0220 -0.9562
vn -0.1253 -0.7494 -0.6501
vn -0.2227 -0.3208 -0.9206
vn -0.2744 -0.0171 -0.9615
vn -0.1201 -0.2891 -0.9497
vn 0.0025 0.0630 -0.9980
vn -0.0884 -0.0200 -0.9959
vn -0.1204 -0.9370 -0.3278
vn -0.1112 -0.9892 -0.0956
vn -0.1178 -0.5481 -0.8281
vn -0.2194 -0.6158 -0.7567
vn -0.2518 -0.6172 -0.7454
vn -0.1253 -0.7494 -0.6501
vn -0.1054 -0.9431 -0.3153
vn -0.1178 -0.5481 -0.8281
vn 0.0025 0.0630 -0.9980
vn -0.1201 -0.2891 -0.9497
vn -0.2194 -0.6158 -0.7567
vn -0.2227 -0.3208 -0.9206
vn -0.1253 -0.7494 -0.6501
vn -0.2518 -0.6172 -0.7454
vn -0.1010 -0.9910 0.0881
vn -0.1112 -0.9892 -0.0956
vn -0.1204 -0.9370 -0.3278
vn -0.1054 -0.9431 -0.3153
vn -0.1253 -0.7494 -0.6501
vn -0.0149 -0.8388 0.5442
vn -0.0871 -0.9935 0.0734
vn -0.0871 -0.9935 0.0734
vn -0.0149 -0.8388 0.5442
vn -0.2178 -0.8116 0.5421
vn -0.1364 -0.7812 0.6092
vn -0.1112 -0.9892 -0.0956
vn -0.1010 -0.9910 0.0881
vn -0.1803 -0.8227 0.5391
vn -0.2178 -0.8116 0.5421
vn -0.0149 -0.8388 0.5442
vn -0.0876 -0.4733 0.8766
vn -0.0646 -0.4591 0.8861
vn 0.0043 -0.0717 0.9974
vn -0.1364 -0.7812 0.6092
vn -0.1803 -0.8227 0.5391
vn -0.0012 0.0554 0.9985
vn 0.0043 -0.0717 0.9974
vn -0.0646 -0.4591 0.8861
vn -0.0876 -0.4733 0.8766
vn -0.0149 -0.8388 0.5442
vn -0.0992 0.1185 0.9880
vn -0.0625 0.0592 0.9963
vn -0.0884 -0.0200 -0.9959
vn 0.0025 0.0630 -0.9980
vn -0.1454 0.3579 -0.9224
vn -0.3298 0.3454 -0.8786
vn -0.3788 0.8035 -0.4592
vn -0.2920 0.0220 -0.9562
vn -0.2744 -0.0171 -0.9615
vn -0.3472 0.8038 -0.4831
vn -0.3788 0.8035 -0.4592
vn -0.3298 0.3454 -0.8786
vn -0.1454 0.3579 -0.9224
vn 0.0025 0.0630 -0.9980
vn 0.0647 0.8600 -0.5062
vn -0.1586 0.8353 -0.5264
vn -0.1586 0.8353 -0.5264
vn 0.0647 0.8600 -0.5062
vn 0.0619 0.9974 0.0365
vn -0.1648 0.9853 0.0446
vn -0.2633 0.8102 0.5238
vn -0.3788 0.8035 -0.4592
vn -0.3472 0.8038 -0.4831
vn -0.1812 0.8115 0.5556
vn -0.2633 0.8102 0.5238
vn -0.1648 0.9853 0.0446
vn 0.0619 0.9974 0.0365
vn 0.0647 0.8600 -0.5062
vn 0.2304 0.8147 0.5322
vn 0.0647 0.8177 0.5720
vn 0.0647 0.8177 0.5720
vn 0.2304 0.8147 0.5322
vn 0.0195 0.4061 0.9136
vn -0.1385 0.4274 0.8934
vn -0.0992 0.1185 0.9880
vn -0.2633 0.8102 0.5238
vn -0.1812 0.8115 0.5556
vn -0.0625 0.0592 0.9963
vn -0.0992 0.1185 0.9880
vn -0.1385 0.4274 0.8934
vn 0.0195 0.4061 0.9136
vn 0.2304 0.8147 0.5322
vn 0.0043 -0.0717 0.9974
vn -0.0012 0.0554 0.9985
# 312 vertex normals

vt 0.2861 0.0902 0.0000
vt 0.3081 0.0807 0.0000
vt 0.2834 0.0391 0.0000
vt 0.2738 0.0693 0.0000
vt 0.2598 0.0112 0.0000
vt 0.2266 0.0137 0.0000
vt 0.2474 0.0452 0.0000
vt 0.2702 0.0270 0.0000
vt 0.3052 0.4064 0.0000
vt 0.2783 0.4178 0.0000
vt 0.2702 0.4539 0.0000
vt 0.2889 0.4787 0.0000
vt 0.3052 0.3890 0.0000
vt 0.2783 0.3830 0.0000
vt 0.3149 0.3753 0.0000
vt 0.2979 0.3556 0.0000
vt 0.3302 0.3376 0.0000
vt 0.3055 0.3368 0.0000
vt 0.3060 0.1079 0.0000
vt 0.3478 0.1162 0.0000
vt 0.3480 0.1440 0.0000
vt 0.3688 0.1343 0.0000
vt 0.3486 0.1906 0.0000
vt 0.3701 0.2274 0.0000
vt 0.3451 0.2586 0.0000
vt 0.3683 0.2614 0.0000
vt 0.3328 0.2834 0.0000
vt 0.3439 0.3109 0.0000
vt 0.2390 0.0837 0.7402
vt 0.2268 0.0745 0.6465
vt 0.2438 0.0484 0.4332
vt 0.2563 0.0575 0.6312
vt 0.2568 0.0749 0.7750
vt 0.2617 0.0621 0.7129
vt 0.2389 0.0837 0.6465
vt 0.2271 0.0742 0.5241
vt 0.2449 0.0493 0.3243
vt 0.2606 0.0613 0.4332
vt 0.2965 0.3386 0.5241
vt 0.2891 0.3552 0.4764
vt 0.2677 0.3497 0.3754
vt 0.2788 0.3335 0.3243
vt 0.2672 0.0794 0.7232
vt 0.2722 0.0691 0.7399
vt 0.3145 0.2406 0.4648
vt 0.3096 0.2240 0.7232
vt 0.3214 0.2253 0.7399
vt 0.3234 0.2395 0.5127
vt 0.3096 0.1814 0.4764
vt 0.3145 0.1615 0.4648
vt 0.3237 0.1598 0.5127
vt 0.3294 0.1776 0.3754
vt 0.3294 0.2132 0.6312
vt 0.3331 0.2027 0.4332
vt 0.3438 0.2060 0.2508
vt 0.3438 0.2133 0.5147
vt 0.3257 0.2187 0.7129
vt 0.3325 0.2211 0.6282
vt 0.3323 0.1883 0.3243
vt 0.3438 0.1816 0.1031
vt 0.3438 0.1704 0.2624
vt 0.3286 0.2264 0.6912
vt 0.3304 0.2395 0.5035
vt 0.3438 0.1581 0.5035
vt 0.3438 0.2197 0.2564
vt 0.3438 0.2193 0.3903
vt 0.3438 0.2207 0.4612
vt 0.3438 0.2256 0.2033
vt 0.3438 0.2296 0.2528
vt 0.3438 0.2232 0.5102
vt 0.3438 0.2279 0.4112
vt 0.3438 0.2443 0.2624
vt 0.2930 0.0088 0.0000
vt 0.3301 0.0713 0.0000
vt 0.3320 0.3950 0.0000
vt 0.3076 0.5034 0.0000
vt 0.3550 0.3384 0.0000
vt 0.3896 0.1245 0.0000
vt 0.3916 0.2642 0.0000
vt 0.2642 0.0996 0.0000
vt 0.1934 0.0161 0.0000
vt 0.2246 0.0635 0.0000
vt 0.2515 0.4292 0.0000
vt 0.2515 0.3770 0.0000
vt 0.2809 0.3359 0.0000
vt 0.3271 0.1538 0.0000
vt 0.3218 0.2559 0.0000
# 87 texture coords

g Object054
usemtl 22___Default
s 61
f 1/1/1 2/2/2 3/3/3 4/4/4 
s 2050
f 5/5/5 6/6/6 7/7/7 8/8/8 
s 2051
f 8/8/9 7/7/10 4/4/11 3/3/12 
s 2052
f 9/9/13 10/10/14 6/11/15 5/12/16 
s 2053
f 9/9/17 11/13/18 12/14/19 10/10/20 
s 2054
f 12/14/21 11/13/22 13/15/23 14/16/24 
s 2055
f 15/17/25 16/18/26 14/16/27 13/15/28 
s 2056
f 2/2/29 1/1/30 17/19/31 18/20/32 
s 2057
f 19/21/33 20/22/34 18/20/35 17/19/36 
s 2058
f 20/22/37 19/21/38 21/23/39 22/24/40 
s 2059
f 23/25/41 24/26/42 22/24/43 21/23/44 
s 2060
f 24/26/45 23/25/46 25/27/47 26/28/48 
s 2061
f 16/18/49 15/17/50 26/28/51 25/27/52 
s off
f 27/29/53 28/30/54 29/31/55 30/32/56 
f 31/33/57 27/29/58 30/32/59 32/34/60 
f 28/35/61 33/36/62 34/37/63 29/38/64 
f 33/39/65 35/40/66 36/41/67 34/42/68 
f 37/43/69 31/33/70 32/34/71 38/44/72 
f 39/45/73 37/46/74 38/47/75 40/48/76 
f 35/49/77 39/50/78 40/51/79 36/52/80 
f 30/53/81 29/54/82 41/55/83 42/56/84 
f 32/57/85 30/53/86 42/56/87 43/58/88 
f 29/54/89 34/59/90 44/60/91 41/55/92 
f 34/59/93 36/52/94 45/61/95 44/60/96 
f 38/47/97 32/57/98 43/58/99 46/62/100 
f 40/48/101 38/47/102 46/62/103 47/63/104 
f 36/52/105 40/51/106 47/64/107 45/61/108 
f 42/56/109 41/55/110 48/65/111 49/66/112 
f 43/58/113 42/56/114 49/66/115 50/67/116 
f 41/55/117 44/60/118 51/68/119 48/65/120 
f 44/60/121 45/61/122 52/69/123 51/68/124 
f 46/62/125 43/58/126 50/67/127 53/70/128 
f 47/63/129 46/62/130 53/70/131 54/71/132 
f 45/72/133 47/63/134 54/71/135 52/69/136 
f 55/73/137 56/74/138 57/74/139 58/73/140 
f 59/75/141 55/76/142 58/76/143 60/75/144 
f 61/77/145 59/75/146 60/75/147 62/77/148 
f 56/74/149 63/78/150 64/78/151 57/74/152 
f 63/78/153 65/79/154 66/79/155 64/78/156 
f 65/79/157 61/77/158 62/77/159 66/79/160 
f 58/73/161 57/74/162 67/74/163 68/73/164 
f 60/75/165 58/76/166 68/76/167 69/75/168 
f 62/77/169 60/75/170 69/75/171 70/77/172 
f 57/74/173 64/78/174 71/78/175 67/74/176 
f 64/78/177 66/79/178 72/79/179 71/78/180 
f 66/79/181 62/77/182 70/77/183 72/79/184 
f 68/73/185 67/74/186 73/74/187 74/73/188 
f 69/75/189 68/76/190 74/76/191 75/75/192 
f 70/77/193 69/75/194 75/75/195 76/77/196 
f 67/74/197 71/78/198 77/78/199 73/74/200 
f 71/78/201 72/79/202 78/79/203 77/78/204 
f 72/79/205 70/77/206 76/77/207 78/79/208 
s 64
f 52/69/209 54/71/210 53/70/211 50/67/212 49/66/213 48/65/214 51/68/215 
f 78/79/216 76/77/217 75/75/218 74/76/219 73/74/220 77/78/221 
s 61
f 56/74/222 55/73/223 3/3/224 2/2/225 
f 4/4/226 31/80/227 1/1/228 
s 2050
f 6/6/229 28/81/230 27/82/231 7/7/232 
f 8/8/233 55/73/234 5/5/235 
s 2051
f 27/82/236 31/80/237 4/4/238 7/7/239 
f 3/3/240 55/73/241 8/8/242 
s 2052
f 10/10/243 28/83/244 6/11/245 
f 5/12/246 55/76/247 59/75/248 9/9/249 
s 2053
f 9/9/250 59/75/251 11/13/252 
f 33/84/253 28/83/254 10/10/255 12/14/256 
s 2054
f 11/13/257 59/75/258 13/15/259 
f 14/16/260 35/85/261 33/84/262 12/14/263 
s 2055
f 16/18/264 35/85/265 14/16/266 
f 13/15/267 59/75/268 61/77/269 15/17/270 
s 2056
f 1/1/271 31/80/272 17/19/273 
f 18/20/274 63/78/275 56/74/276 2/2/277 
s 2057
f 20/22/278 63/78/279 18/20/280 
f 17/19/281 31/80/282 37/86/283 19/21/284 
s 2058
f 19/21/285 37/86/286 21/23/287 
f 22/24/288 65/79/289 63/78/290 20/22/291 
s 2059
f 24/26/292 65/79/293 22/24/294 
f 21/23/295 37/86/296 39/87/297 23/25/298 
s 2060
f 23/25/299 39/87/300 25/27/301 
f 26/28/302 61/77/303 65/79/304 24/26/305 
s 2061
f 15/17/306 61/77/307 26/28/308 
f 25/27/309 39/87/310 35/85/311 16/18/312 
# 67 polygons - 13 triangles

