# 3ds Max Wavefront OBJ Exporter v0.97b - (c)2007 guruware
# File Created: 10.05.2015 00:51:20

mtllib Thruster  Effect.mtl

#
# object THRUSTER_effect
#

v  2.4522 -0.0538 -0.6606
v  2.2938 0.2738 -0.3253
v  2.7718 -0.4237 0.2476
v  2.8291 -0.5422 0.1263
v  2.8046 -0.3988 -0.9125
v  2.9709 -0.6809 0.0250
v  3.3381 -0.6728 -0.9742
v  3.1803 -0.7885 0.0008
v  3.8846 -0.7704 -0.8015
v  3.5375 -0.7886 0.1955
v  3.3813 -0.8244 0.0643
v  4.3194 -0.6669 -0.4316
v  4.5640 -0.3784 0.0738
v  3.6367 -0.6717 0.4002
v  4.5113 0.0344 0.5766
v  3.6167 -0.5149 0.5912
v  2.8025 -0.3042 0.4182
v  3.4883 -0.3762 0.6997
v  4.1741 0.3986 0.8614
v  2.3763 0.5950 0.1332
v  2.9204 -0.2317 0.5758
v  3.2436 -0.2461 0.7336
v  3.7744 0.6556 0.9742
v  2.6890 0.7873 0.5513
v  3.2691 0.8244 0.9157
v  -2.4522 -0.0538 -0.6606
v  -2.7718 -0.4237 0.2476
v  -2.2938 0.2738 -0.3253
v  -2.8291 -0.5422 0.1263
v  -2.8046 -0.3988 -0.9125
v  -2.9709 -0.6809 0.0250
v  -3.3381 -0.6728 -0.9742
v  -3.1803 -0.7885 0.0008
v  -3.8846 -0.7704 -0.8015
v  -3.5375 -0.7886 0.1955
v  -3.3813 -0.8244 0.0643
v  -4.3194 -0.6669 -0.4316
v  -4.5640 -0.3785 0.0738
v  -3.6367 -0.6717 0.4002
v  -4.5113 0.0344 0.5766
v  -3.6167 -0.5149 0.5912
v  -2.8025 -0.3042 0.4182
v  -3.4883 -0.3762 0.6997
v  -4.1741 0.3986 0.8614
v  -2.3763 0.5950 0.1332
v  -2.9204 -0.2317 0.5758
v  -3.2436 -0.2461 0.7336
v  -3.7744 0.6556 0.9742
v  -2.6890 0.7873 0.5513
v  -3.2691 0.8244 0.9157
# 50 vertices

vn 0.8002 0.5996 -0.0111
vn 0.8554 0.5095 -0.0935
vn 0.8554 0.5094 -0.0935
vn 0.8554 0.5094 -0.0935
vn 0.7961 0.6051 -0.0057
vn 0.8002 0.5996 -0.0111
vn 0.6056 0.7853 0.1289
vn 0.8002 0.5996 -0.0111
vn 0.7961 0.6051 -0.0057
vn 0.7961 0.6051 -0.0057
vn 0.6026 0.7874 0.1301
vn 0.6056 0.7853 0.1289
vn 0.3019 0.9397 0.1604
vn 0.6056 0.7853 0.1289
vn 0.6026 0.7874 0.1301
vn 0.6026 0.7874 0.1301
vn 0.3049 0.9387 0.1608
vn 0.3019 0.9397 0.1604
vn -0.0327 0.9985 0.0433
vn 0.3019 0.9397 0.1604
vn 0.3049 0.9387 0.1608
vn 0.3175 0.7489 -0.5817
vn 0.3175 0.7489 -0.5817
vn 0.3175 0.7489 -0.5817
vn 0.3175 0.7489 -0.5817
vn 0.3175 0.7489 -0.5817
vn 0.3175 0.7489 -0.5817
vn 0.3175 0.7489 -0.5817
vn 0.3175 0.7489 -0.5817
vn 0.3175 0.7489 -0.5817
vn 0.3175 0.7489 -0.5817
vn 0.3174 0.7489 -0.5817
vn 0.3175 0.7489 -0.5817
vn 0.3049 0.9387 0.1608
vn -0.0269 0.9985 0.0481
vn -0.0327 0.9985 0.0433
vn -0.2940 0.9376 -0.1854
vn -0.0327 0.9985 0.0433
vn -0.0269 0.9985 0.0481
vn -0.0269 0.9985 0.0481
vn -0.2885 0.9410 -0.1771
vn -0.2940 0.9376 -0.1854
vn -0.4120 0.7822 -0.4674
vn -0.2940 0.9376 -0.1854
vn -0.2885 0.9410 -0.1771
vn -0.2885 0.9410 -0.1771
vn -0.4107 0.7879 -0.4588
vn -0.4120 0.7822 -0.4674
vn -0.3544 0.5572 -0.7510
vn -0.4120 0.7822 -0.4674
vn -0.4107 0.7879 -0.4588
vn 0.3175 0.7489 -0.5817
vn 0.3174 0.7489 -0.5817
vn 0.3175 0.7489 -0.5817
vn -0.4107 0.7879 -0.4588
vn -0.3583 0.5637 -0.7442
vn -0.3544 0.5572 -0.7510
vn 0.3174 0.7489 -0.5817
vn 0.3174 0.7489 -0.5817
vn 0.3174 0.7489 -0.5817
vn 0.3174 0.7489 -0.5817
vn 0.3174 0.7489 -0.5817
vn 0.3174 0.7489 -0.5817
vn -0.3583 0.5637 -0.7442
vn -0.1474 0.3457 -0.9267
vn -0.1816 0.3524 -0.9181
vn -0.1816 0.3524 -0.9181
vn -0.3544 0.5572 -0.7510
vn -0.3583 0.5637 -0.7442
vn 0.3174 0.7489 -0.5817
vn 0.3174 0.7489 -0.5817
vn 0.3174 0.7489 -0.5817
vn 0.8301 0.2329 -0.5067
vn 0.8798 0.3002 -0.3686
vn 0.8798 0.3002 -0.3686
vn 0.8798 0.3002 -0.3686
vn 0.8271 0.2295 -0.5131
vn 0.8301 0.2329 -0.5067
vn 0.6085 0.1194 -0.7845
vn 0.8301 0.2329 -0.5067
vn 0.8271 0.2295 -0.5131
vn 0.3174 0.7489 -0.5817
vn 0.3174 0.7489 -0.5817
vn 0.3174 0.7489 -0.5817
vn 0.3174 0.7489 -0.5817
vn 0.3174 0.7489 -0.5817
vn 0.3174 0.7489 -0.5817
vn -0.1474 0.3457 -0.9267
vn 0.2383 0.1787 -0.9546
vn 0.0406 0.2233 -0.9739
vn 0.0406 0.2233 -0.9739
vn -0.1816 0.3524 -0.9181
vn -0.1474 0.3457 -0.9267
vn 0.8271 0.2295 -0.5131
vn 0.6368 0.1399 -0.7583
vn 0.6085 0.1194 -0.7845
vn 0.2383 0.1787 -0.9546
vn 0.6085 0.1194 -0.7845
vn 0.6368 0.1399 -0.7583
vn 0.6368 0.1399 -0.7583
vn 0.3576 0.1483 -0.9220
vn 0.2383 0.1787 -0.9546
vn 0.3576 0.1483 -0.9220
vn 0.0406 0.2233 -0.9739
vn 0.2383 0.1787 -0.9546
vn -0.8002 0.5996 -0.0111
vn -0.8554 0.5094 -0.0935
vn -0.8554 0.5095 -0.0935
vn -0.8554 0.5094 -0.0935
vn -0.8002 0.5996 -0.0111
vn -0.7961 0.6051 -0.0057
vn -0.6056 0.7853 0.1289
vn -0.7961 0.6051 -0.0057
vn -0.8002 0.5996 -0.0111
vn -0.7961 0.6051 -0.0057
vn -0.6056 0.7853 0.1289
vn -0.6026 0.7874 0.1301
vn -0.3019 0.9397 0.1604
vn -0.6026 0.7874 0.1301
vn -0.6056 0.7853 0.1289
vn -0.6026 0.7874 0.1301
vn -0.3019 0.9397 0.1604
vn -0.3049 0.9387 0.1608
vn 0.0327 0.9985 0.0433
vn -0.3049 0.9387 0.1608
vn -0.3019 0.9397 0.1604
vn -0.3174 0.7489 -0.5817
vn -0.3175 0.7489 -0.5817
vn -0.3175 0.7489 -0.5817
vn -0.3175 0.7489 -0.5817
vn -0.3174 0.7489 -0.5817
vn -0.3175 0.7489 -0.5817
vn -0.3174 0.7489 -0.5817
vn -0.3175 0.7489 -0.5817
vn -0.3174 0.7489 -0.5817
vn -0.3174 0.7489 -0.5817
vn -0.3175 0.7489 -0.5817
vn -0.3174 0.7489 -0.5817
vn -0.3049 0.9387 0.1608
vn 0.0327 0.9985 0.0433
vn 0.0269 0.9985 0.0481
vn 0.2940 0.9376 -0.1854
vn 0.0269 0.9985 0.0481
vn 0.0327 0.9985 0.0433
vn 0.0269 0.9985 0.0481
vn 0.2940 0.9376 -0.1854
vn 0.2885 0.9410 -0.1771
vn 0.4120 0.7822 -0.4674
vn 0.2885 0.9410 -0.1771
vn 0.2940 0.9376 -0.1854
vn 0.2885 0.9410 -0.1771
vn 0.4120 0.7822 -0.4674
vn 0.4107 0.7879 -0.4588
vn 0.3544 0.5572 -0.7510
vn 0.4107 0.7879 -0.4588
vn 0.4120 0.7822 -0.4674
vn -0.3175 0.7489 -0.5817
vn -0.3174 0.7489 -0.5817
vn -0.3174 0.7489 -0.5817
vn 0.4107 0.7879 -0.4588
vn 0.3544 0.5572 -0.7510
vn 0.3583 0.5637 -0.7442
vn -0.3174 0.7489 -0.5817
vn -0.3174 0.7489 -0.5817
vn -0.3174 0.7489 -0.5817
vn -0.3174 0.7489 -0.5817
vn -0.3174 0.7489 -0.5817
vn -0.3174 0.7489 -0.5817
vn 0.3583 0.5637 -0.7442
vn 0.1816 0.3524 -0.9181
vn 0.1474 0.3457 -0.9267
vn 0.1816 0.3524 -0.9181
vn 0.3583 0.5637 -0.7442
vn 0.3544 0.5572 -0.7510
vn -0.3174 0.7489 -0.5817
vn -0.3174 0.7489 -0.5817
vn -0.3174 0.7489 -0.5817
vn -0.8301 0.2329 -0.5067
vn -0.8798 0.3002 -0.3686
vn -0.8798 0.3002 -0.3686
vn -0.8798 0.3002 -0.3686
vn -0.8301 0.2329 -0.5067
vn -0.8271 0.2295 -0.5131
vn -0.6085 0.1194 -0.7845
vn -0.8271 0.2295 -0.5131
vn -0.8301 0.2329 -0.5067
vn -0.3174 0.7489 -0.5817
vn -0.3174 0.7489 -0.5817
vn -0.3174 0.7489 -0.5817
vn -0.3174 0.7489 -0.5817
vn -0.3174 0.7489 -0.5817
vn -0.3174 0.7489 -0.5817
vn 0.1474 0.3457 -0.9267
vn -0.0406 0.2233 -0.9739
vn -0.2383 0.1787 -0.9546
vn -0.0406 0.2233 -0.9739
vn 0.1474 0.3457 -0.9267
vn 0.1816 0.3524 -0.9181
vn -0.8271 0.2295 -0.5131
vn -0.6085 0.1194 -0.7845
vn -0.6368 0.1399 -0.7583
vn -0.2383 0.1787 -0.9546
vn -0.6368 0.1399 -0.7583
vn -0.6085 0.1194 -0.7845
vn -0.6368 0.1399 -0.7583
vn -0.2383 0.1787 -0.9546
vn -0.3576 0.1483 -0.9220
vn -0.3576 0.1483 -0.9220
vn -0.2383 0.1787 -0.9546
vn -0.0406 0.2233 -0.9739
# 210 vertex normals

vt 0.1528 0.7656 0.0000
vt 0.1870 0.7534 0.0000
vt 0.2012 0.8345 0.0000
vt 0.1890 0.8364 0.0000
vt 0.1191 0.7900 0.0000
vt 0.1753 0.8442 0.0000
vt 0.0933 0.8271 0.0000
vt 0.1660 0.8579 0.0000
vt 0.0830 0.8701 0.0000
vt 0.1650 0.8853 0.0000
vt 0.1626 0.8721 0.0000
vt 0.0903 0.9136 0.0000
vt 0.1143 0.9546 0.0000
vt 0.1753 0.8979 0.0000
vt 0.1523 0.9858 0.0000
vt 0.1855 0.9102 0.0000
vt 0.2397 0.8809 0.0000
vt 0.1982 0.9141 0.0000
vt 0.1948 0.9966 0.0000
vt 0.2373 0.8667 0.0000
vt 0.3198 0.8599 0.0000
vt 0.3184 0.9014 0.0000
vt 0.2358 0.8945 0.0000
vt 0.2173 0.9111 0.0000
vt 0.2319 0.9937 0.0000
vt 0.3037 0.9404 0.0000
vt 0.2690 0.9785 0.0000
vt 0.1528 0.7656 0.0000
vt 0.2012 0.8345 0.0000
vt 0.1870 0.7534 0.0000
vt 0.1890 0.8364 0.0000
vt 0.1191 0.7900 0.0000
vt 0.1753 0.8442 0.0000
vt 0.0933 0.8271 0.0000
vt 0.1660 0.8579 0.0000
vt 0.0830 0.8701 0.0000
vt 0.1650 0.8853 0.0000
vt 0.1626 0.8721 0.0000
vt 0.0903 0.9136 0.0000
vt 0.1143 0.9546 0.0000
vt 0.1753 0.8979 0.0000
vt 0.1523 0.9858 0.0000
vt 0.1855 0.9102 0.0000
vt 0.2397 0.8809 0.0000
vt 0.1982 0.9141 0.0000
vt 0.1948 0.9966 0.0000
vt 0.2373 0.8667 0.0000
vt 0.3198 0.8599 0.0000
vt 0.3184 0.9014 0.0000
vt 0.2358 0.8945 0.0000
vt 0.2173 0.9111 0.0000
vt 0.2319 0.9937 0.0000
vt 0.3037 0.9404 0.0000
vt 0.2690 0.9785 0.0000
# 54 texture coords

g THRUSTER_effect
usemtl 19___Default
s 1
f 1/1/1 2/2/2 3/3/3 
f 3/3/4 4/4/5 1/1/6 
f 5/5/7 1/1/8 4/4/9 
f 4/4/10 6/6/11 5/5/12 
f 7/7/13 5/5/14 6/6/15 
f 6/6/16 8/8/17 7/7/18 
f 9/9/19 7/7/20 8/8/21 
s 2
f 10/10/22 4/4/23 3/3/24 
f 6/6/25 4/4/26 10/10/27 
f 10/10/28 11/11/29 6/6/30 
f 11/11/31 8/8/32 6/6/33 
s 1
f 8/8/34 11/11/35 9/9/36 
f 12/12/37 9/9/38 11/11/39 
f 11/11/40 10/10/41 12/12/42 
f 13/13/43 12/12/44 10/10/45 
f 10/10/46 14/14/47 13/13/48 
f 15/15/49 13/13/50 14/14/51 
s 2
f 3/3/52 14/14/53 10/10/54 
s 1
f 14/14/55 16/16/56 15/15/57 
s 4
f 17/17/58 16/16/59 14/14/60 
f 18/18/61 16/16/62 17/17/63 
s 1
f 16/16/64 18/18/65 19/19/66 
f 19/19/67 15/15/68 16/16/69 
s 4
f 14/14/70 3/20/71 17/17/72 
s 1
f 17/17/73 3/20/74 2/21/75 
f 2/21/76 20/22/77 17/17/78 
f 21/23/79 17/17/80 20/22/81 
s 4
f 17/17/82 21/23/83 18/18/84 
f 21/23/85 22/24/86 18/18/87 
s 1
f 18/18/88 22/24/89 23/25/90 
f 23/25/91 19/19/92 18/18/93 
f 20/22/94 24/26/95 21/23/96 
f 22/24/97 21/23/98 24/26/99 
f 24/26/100 25/27/101 22/24/102 
f 25/27/103 23/25/104 22/24/105 
f 26/28/106 27/29/107 28/30/108 
f 27/29/109 26/28/110 29/31/111 
f 30/32/112 29/31/113 26/28/114 
f 29/31/115 30/32/116 31/33/117 
f 32/34/118 31/33/119 30/32/120 
f 31/33/121 32/34/122 33/35/123 
f 34/36/124 33/35/125 32/34/126 
s 2
f 35/37/127 27/29/128 29/31/129 
f 31/33/130 35/37/131 29/31/132 
f 35/37/133 31/33/134 36/38/135 
f 36/38/136 31/33/137 33/35/138 
s 1
f 33/35/139 34/36/140 36/38/141 
f 37/39/142 36/38/143 34/36/144 
f 36/38/145 37/39/146 35/37/147 
f 38/40/148 35/37/149 37/39/150 
f 35/37/151 38/40/152 39/41/153 
f 40/42/154 39/41/155 38/40/156 
s 2
f 27/29/157 35/37/158 39/41/159 
s 1
f 39/41/160 40/42/161 41/43/162 
s 4
f 42/44/163 39/41/164 41/43/165 
f 43/45/166 42/44/167 41/43/168 
s 1
f 41/43/169 44/46/170 43/45/171 
f 44/46/172 41/43/173 40/42/174 
s 4
f 39/41/175 42/44/176 27/47/177 
s 1
f 42/44/178 28/48/179 27/47/180 
f 28/48/181 42/44/182 45/49/183 
f 46/50/184 45/49/185 42/44/186 
s 4
f 42/44/187 43/45/188 46/50/189 
f 46/50/190 43/45/191 47/51/192 
s 1
f 43/45/193 48/52/194 47/51/195 
f 48/52/196 43/45/197 44/46/198 
f 45/49/199 46/50/200 49/53/201 
f 47/51/202 49/53/203 46/50/204 
f 49/53/205 47/51/206 50/54/207 
f 50/54/208 47/51/209 48/52/210 
# 0 polygons - 70 triangles

