# 3ds Max Wavefront OBJ Exporter v0.97b - (c)2007 guruware
# File Created: 09.05.2015 22:56:22

mtllib Thumb Right.mtl

#
# object Object050
#

v  0.0412 -5.3350 2.5506
v  0.1665 -5.3443 2.6735
v  0.1283 -5.3603 2.5616
v  1.4054 -7.5610 3.0664
v  1.0821 -7.6639 2.7491
v  1.3407 -7.5935 2.8377
v  1.3355 -7.5619 3.2463
v  0.7751 -7.7204 2.8531
v  0.8518 -7.6636 3.4115
v  0.6898 -7.6926 3.3090
v  0.6119 -7.7276 3.0844
v  0.8995 -7.6382 3.4480
v  1.3146 -7.5619 3.3074
v  1.1425 -6.7983 3.0809
v  0.6489 -6.8891 3.2482
v  0.5853 -6.9269 3.1920
v  1.1686 -6.8196 2.9944
v  0.9579 -6.4161 2.9066
v  0.5412 -6.4927 3.0478
v  0.4239 -6.4529 3.0049
v  0.2915 -6.5384 2.8934
v  0.3981 -7.0441 3.0562
v  1.2647 -6.8847 2.7625
v  1.0664 -6.3958 2.6308
v  1.0066 -6.3460 2.8025
v  0.9263 -6.2028 2.8778
v  0.8621 -6.2878 2.9229
v  0.5614 -6.3431 3.0248
v  1.2154 -7.1025 2.4557
v  1.0725 -6.5749 2.2743
v  0.9537 -5.8612 2.2100
v  0.9578 -5.7669 2.4096
v  0.8046 -5.4860 2.4776
v  0.7615 -5.4701 2.6070
v  1.0042 -7.2095 2.3693
v  0.8203 -6.7573 2.0700
v  0.5511 -5.8322 1.5666
v  0.8029 -5.6083 1.7985
v  0.7709 -5.4030 1.8615
v  0.7702 -5.2513 2.1783
v  0.4798 -7.3162 2.5523
v  0.2587 -6.8606 2.2603
v  -0.1176 -5.9552 1.7933
v  -0.0799 -4.6467 1.2743
v  0.6825 -5.2169 2.3334
v  0.4600 -6.2885 3.0358
v  0.2244 -5.5689 2.7891
v  0.1212 -5.6117 2.7092
v  0.0576 -5.9325 2.7147
v  -0.1051 -5.4124 2.4750
v  -0.0391 -6.0727 2.4860
v  0.1252 -6.7490 2.5954
v  0.6643 -5.2527 2.5048
v  0.6317 -5.2677 2.3910
v  -0.2439 -5.6035 2.2030
v  -0.2391 -5.8000 2.1517
v  0.3209 -7.2650 2.7640
# 57 vertices

vn 0.2980 0.9255 -0.2338
vn 0.2980 0.9255 -0.2338
vn 0.2980 0.9255 -0.2338
vn 0.2295 -0.9699 0.0807
vn 0.2176 -0.9721 0.0875
vn 0.2399 -0.9683 0.0697
vn 0.2206 -0.9718 0.0831
vn 0.2176 -0.9721 0.0875
vn 0.2295 -0.9699 0.0807
vn 0.1986 -0.9765 0.0832
vn 0.2176 -0.9721 0.0875
vn 0.2206 -0.9718 0.0831
vn 0.2206 -0.9718 0.0831
vn 0.2182 -0.9669 0.1319
vn 0.1986 -0.9765 0.0832
vn 0.1350 -0.9872 0.0854
vn 0.1986 -0.9765 0.0832
vn 0.2182 -0.9669 0.1319
vn 0.1739 -0.9804 0.0922
vn 0.1986 -0.9765 0.0832
vn 0.1350 -0.9872 0.0854
vn 0.2813 -0.9243 0.2579
vn 0.2182 -0.9669 0.1319
vn 0.2206 -0.9718 0.0831
vn 0.2206 -0.9718 0.0831
vn 0.2032 -0.9767 0.0695
vn 0.2813 -0.9243 0.2579
vn 0.2490 0.3266 0.9118
vn 0.2490 0.3266 0.9118
vn 0.2256 0.4056 0.8858
vn 0.2256 0.4056 0.8858
vn 0.2253 0.4068 0.8853
vn 0.2490 0.3266 0.9118
vn -0.5821 0.0273 0.8126
vn -0.6104 0.0071 0.7921
vn -0.6828 0.0714 0.7271
vn -0.6828 0.0714 0.7271
vn -0.6384 0.0791 0.7656
vn -0.5821 0.0273 0.8126
vn -0.7268 -0.0766 0.6825
vn -0.5821 0.0273 0.8126
vn -0.6384 0.0791 0.7656
vn 0.9055 0.3839 0.1808
vn 0.9042 0.2954 0.3087
vn 0.8970 0.3038 0.3210
vn 0.8970 0.3038 0.3210
vn 0.8943 0.3784 0.2389
vn 0.9055 0.3839 0.1808
vn 0.7258 0.3916 0.5655
vn 0.9055 0.3839 0.1808
vn 0.8943 0.3784 0.2389
vn 0.2256 0.4056 0.8858
vn 0.2707 0.3153 0.9096
vn 0.2375 0.2983 0.9244
vn 0.2375 0.2983 0.9244
vn 0.2253 0.4068 0.8853
vn 0.2256 0.4056 0.8858
vn -0.6384 0.0791 0.7656
vn -0.6828 0.0714 0.7271
vn -0.3156 0.1733 0.9329
vn -0.3156 0.1733 0.9329
vn -0.5371 0.0357 0.8428
vn -0.6384 0.0791 0.7656
vn -0.6384 0.0791 0.7656
vn -0.5371 0.0357 0.8428
vn -0.7517 -0.0290 0.6589
vn -0.7517 -0.0290 0.6589
vn -0.7845 -0.0661 0.6166
vn -0.6384 0.0791 0.7656
vn -0.6384 0.0791 0.7656
vn -0.7845 -0.0661 0.6166
vn -0.7268 -0.0766 0.6825
vn -0.8906 -0.2633 0.3709
vn -0.7268 -0.0766 0.6825
vn -0.7845 -0.0661 0.6166
vn 0.8943 0.3784 0.2389
vn 0.8970 0.3038 0.3210
vn 0.9682 0.2318 0.0943
vn 0.9682 0.2318 0.0943
vn 0.9624 0.2714 0.0061
vn 0.8943 0.3784 0.2389
vn 0.8943 0.3784 0.2389
vn 0.9624 0.2714 0.0061
vn 0.9549 0.2886 0.0699
vn 0.9549 0.2886 0.0699
vn 0.8685 0.3217 0.3771
vn 0.8943 0.3784 0.2389
vn 0.8943 0.3784 0.2389
vn 0.8685 0.3217 0.3771
vn 0.7258 0.3916 0.5655
vn 0.7258 0.3916 0.5655
vn 0.8685 0.3217 0.3771
vn 0.8786 0.2948 0.3757
vn 0.2815 0.3129 0.9071
vn 0.3128 0.2009 0.9283
vn 0.2707 0.3153 0.9096
vn 0.2707 0.3153 0.9096
vn 0.3128 0.2009 0.9283
vn 0.2472 0.1861 0.9509
vn 0.2472 0.1861 0.9509
vn 0.2375 0.2983 0.9244
vn 0.2707 0.3153 0.9096
vn 0.9624 0.2714 0.0061
vn 0.9682 0.2318 0.0943
vn 0.8341 -0.1713 -0.5244
vn 0.8341 -0.1713 -0.5244
vn 0.8073 -0.1543 -0.5697
vn 0.9624 0.2714 0.0061
vn 0.8866 0.0551 -0.4593
vn 0.9624 0.2714 0.0061
vn 0.8073 -0.1543 -0.5697
vn 0.8866 0.0551 -0.4593
vn 0.9549 0.2886 0.0699
vn 0.9624 0.2714 0.0061
vn 0.9549 0.2886 0.0699
vn 0.8866 0.0551 -0.4593
vn 0.9676 0.1841 -0.1730
vn 0.9676 0.1841 -0.1730
vn 0.9455 0.2977 0.1322
vn 0.9549 0.2886 0.0699
vn 0.8685 0.3217 0.3771
vn 0.9549 0.2886 0.0699
vn 0.9455 0.2977 0.1322
vn 0.9455 0.2977 0.1322
vn 0.8672 0.4233 0.2622
vn 0.8685 0.3217 0.3771
vn 0.8685 0.3217 0.3771
vn 0.8672 0.4233 0.2622
vn 0.8849 0.3963 0.2446
vn 0.8849 0.3963 0.2446
vn 0.8786 0.2948 0.3757
vn 0.8685 0.3217 0.3771
vn 0.8073 -0.1543 -0.5697
vn 0.8341 -0.1713 -0.5244
vn 0.4311 -0.4961 -0.7537
vn 0.4311 -0.4961 -0.7537
vn 0.5151 -0.4082 -0.7537
vn 0.8073 -0.1543 -0.5697
vn 0.6605 -0.1632 -0.7329
vn 0.8073 -0.1543 -0.5697
vn 0.5151 -0.4082 -0.7537
vn 0.6605 -0.1632 -0.7329
vn 0.8866 0.0551 -0.4593
vn 0.8073 -0.1543 -0.5697
vn 0.8866 0.0551 -0.4593
vn 0.6605 -0.1632 -0.7329
vn 0.6756 -0.0088 -0.7372
vn 0.6756 -0.0088 -0.7372
vn 0.8293 0.1257 -0.5445
vn 0.8866 0.0551 -0.4593
vn 0.8293 0.1257 -0.5445
vn 0.9676 0.1841 -0.1730
vn 0.8866 0.0551 -0.4593
vn 0.8293 0.1257 -0.5445
vn 0.8421 0.3859 -0.3769
vn 0.9676 0.1841 -0.1730
vn 0.9676 0.1841 -0.1730
vn 0.8421 0.3859 -0.3769
vn 0.7964 0.6046 0.0144
vn 0.7964 0.6046 0.0144
vn 0.9455 0.2977 0.1322
vn 0.9676 0.1841 -0.1730
vn 0.8672 0.4233 0.2622
vn 0.9455 0.2977 0.1322
vn 0.7964 0.6046 0.0144
vn -0.1449 -0.6173 -0.7733
vn -0.1345 -0.6489 -0.7489
vn -0.1316 -0.6499 -0.7486
vn -0.1316 -0.6499 -0.7486
vn -0.1450 -0.6175 -0.7731
vn -0.1449 -0.6173 -0.7733
vn -0.1750 -0.5493 -0.8171
vn -0.1449 -0.6173 -0.7733
vn -0.1450 -0.6175 -0.7731
vn -0.1450 -0.6175 -0.7731
vn -0.1762 -0.5483 -0.8175
vn -0.1750 -0.5493 -0.8171
vn -0.1750 -0.5493 -0.8171
vn -0.1762 -0.5483 -0.8175
vn -0.2144 -0.4408 -0.8716
vn -0.2144 -0.4408 -0.8716
vn -0.2154 -0.4376 -0.8730
vn -0.1750 -0.5493 -0.8171
vn -0.2144 -0.4408 -0.8716
vn -0.2418 -0.3517 -0.9044
vn -0.2154 -0.4376 -0.8730
vn 0.6756 -0.0088 -0.7372
vn 0.7184 0.4670 -0.5155
vn 0.8293 0.1257 -0.5445
vn 0.8293 0.1257 -0.5445
vn 0.7184 0.4670 -0.5155
vn 0.8421 0.3859 -0.3769
vn 0.8421 0.3859 -0.3769
vn 0.7184 0.4670 -0.5155
vn 0.7964 0.6046 0.0144
vn 0.7964 0.6046 0.0144
vn 0.7184 0.4670 -0.5155
vn 0.7313 0.6438 0.2252
vn 0.7964 0.6046 0.0144
vn 0.7313 0.6438 0.2252
vn 0.8672 0.4233 0.2622
vn 0.8849 0.3963 0.2446
vn 0.8672 0.4233 0.2622
vn 0.7313 0.6438 0.2252
vn 0.2472 0.1861 0.9509
vn 0.3128 0.2009 0.9283
vn 0.2815 0.3129 0.9071
vn 0.2815 0.3129 0.9071
vn 0.2261 0.3031 0.9257
vn 0.2472 0.1861 0.9509
vn 0.2375 0.2983 0.9244
vn 0.2472 0.1861 0.9509
vn 0.2261 0.3031 0.9257
vn -0.6369 -0.0052 0.7709
vn -0.5371 0.0357 0.8428
vn -0.3156 0.1733 0.9329
vn -0.5371 0.0357 0.8428
vn -0.6369 -0.0052 0.7709
vn -0.6463 0.1243 0.7529
vn -0.6463 0.1243 0.7529
vn -0.6264 0.1541 0.7641
vn -0.5371 0.0357 0.8428
vn -0.5371 0.0357 0.8428
vn -0.6264 0.1541 0.7641
vn -0.7402 0.0008 0.6724
vn -0.7402 0.0008 0.6724
vn -0.7517 -0.0290 0.6589
vn -0.5371 0.0357 0.8428
vn 0.2261 0.3031 0.9257
vn 0.2815 0.3129 0.9071
vn 0.2159 0.4362 0.8736
vn 0.2159 0.4362 0.8736
vn 0.2161 0.4354 0.8739
vn 0.2261 0.3031 0.9257
vn 0.1982 0.4885 0.8498
vn 0.2161 0.4354 0.8739
vn 0.2159 0.4362 0.8736
vn -0.6463 0.1243 0.7529
vn -0.6805 0.1888 0.7080
vn -0.6007 0.2558 0.7575
vn -0.6007 0.2558 0.7575
vn -0.6264 0.1541 0.7641
vn -0.6463 0.1243 0.7529
vn -0.6264 0.1541 0.7641
vn -0.6007 0.2558 0.7575
vn -0.7562 0.0846 0.6489
vn -0.7562 0.0846 0.6489
vn -0.7402 0.0008 0.6724
vn -0.6264 0.1541 0.7641
vn -0.8898 -0.1282 0.4380
vn -0.7402 0.0008 0.6724
vn -0.7562 0.0846 0.6489
vn -0.7402 0.0008 0.6724
vn -0.8898 -0.1282 0.4380
vn -0.8652 -0.1196 0.4869
vn -0.8652 -0.1196 0.4869
vn -0.7517 -0.0290 0.6589
vn -0.7402 0.0008 0.6724
vn -0.7517 -0.0290 0.6589
vn -0.8652 -0.1196 0.4869
vn -0.7845 -0.0661 0.6166
vn 0.2159 0.4362 0.8736
vn 0.1982 0.4885 0.8498
vn 0.1982 0.4885 0.8498
vn -0.2034 0.9766 -0.0700
vn -0.2034 0.9766 -0.0700
vn -0.2034 0.9766 -0.0700
vn -0.2034 0.9766 -0.0700
vn -0.2034 0.9766 -0.0700
vn -0.2034 0.9766 -0.0700
vn -0.0743 0.8506 0.5205
vn 0.0054 0.8706 0.4919
vn 0.0943 0.8771 0.4710
vn 0.0943 0.8771 0.4710
vn 0.0054 0.8706 0.4919
vn 0.1959 0.8707 0.4510
vn -0.5851 0.6892 0.4273
vn -0.9759 0.2181 0.0094
vn -0.7453 0.5691 0.3473
vn -0.7453 0.5691 0.3473
vn -0.9759 0.2181 0.0094
vn -0.9847 0.1742 0.0057
vn -0.7562 0.0846 0.6489
vn -0.8764 -0.0982 0.4714
vn -0.8898 -0.1282 0.4380
vn -0.8952 -0.1365 0.4242
vn -0.8898 -0.1282 0.4380
vn -0.8764 -0.0982 0.4714
vn -0.8652 -0.1196 0.4869
vn -0.8898 -0.1282 0.4380
vn -0.8952 -0.1365 0.4242
vn -0.8646 -0.4487 -0.2262
vn -0.8821 -0.4209 -0.2114
vn -0.9585 -0.2047 -0.1982
vn -0.8646 -0.4487 -0.2262
vn -0.7297 -0.5944 -0.3379
vn -0.8821 -0.4209 -0.2114
vn -0.7845 -0.0661 0.6166
vn -0.8652 -0.1196 0.4869
vn -0.8817 -0.2338 0.4097
vn -0.7845 -0.0661 0.6166
vn -0.8817 -0.2338 0.4097
vn -0.8906 -0.2633 0.3709
vn -0.1734 0.8096 0.5608
vn 0.0054 0.8706 0.4919
vn -0.0743 0.8506 0.5205
vn -0.6754 -0.6345 -0.3758
vn -0.7297 -0.5944 -0.3379
vn -0.8646 -0.4487 -0.2262
vn -0.5916 -0.7023 -0.3960
vn -0.7297 -0.5944 -0.3379
vn -0.6754 -0.6345 -0.3758
vn -0.6754 -0.6345 -0.3758
vn -0.5583 -0.7177 -0.4162
vn -0.5916 -0.7023 -0.3960
vn -0.9585 -0.2047 -0.1982
vn -0.9419 -0.2675 -0.2033
vn -0.8646 -0.4487 -0.2262
vn -0.9585 -0.2047 -0.1982
vn -0.9759 0.2181 0.0094
vn -0.9419 -0.2675 -0.2033
vn -0.9847 0.1742 0.0057
vn -0.9759 0.2181 0.0094
vn -0.9585 -0.2047 -0.1982
vn -0.6524 0.7527 0.0881
vn -0.6524 0.7527 0.0881
vn -0.6524 0.7527 0.0881
vn 0.7313 0.6438 0.2252
vn 0.8597 0.4740 0.1903
vn 0.8849 0.3963 0.2446
# 330 vertex normals

vt 0.4038 0.2144 0.0000
vt 0.4038 0.2144 0.0000
vt 0.2524 0.1548 0.0000
vt 0.2412 0.2090 0.0000
vt 0.2451 0.1826 0.0000
vt 0.2388 0.2202 0.0000
vt 0.2451 0.1714 0.0000
vt 0.2451 0.1826 0.0000
vt 0.2432 0.1851 0.0000
vt 0.2388 0.2202 0.0000
vt 0.2451 0.2412 0.0000
vt 0.2412 0.2090 0.0000
vt 0.2412 0.2056 0.0000
vt 0.2451 0.1826 0.0000
vt 0.2324 0.1714 0.0000
vt 0.2451 0.1714 0.0000
vt 0.2261 0.2173 0.0000
vt 0.3188 0.2275 0.0000
vt 0.3184 0.2207 0.0000
vt 0.3291 0.2129 0.0000
vt 0.3276 0.2090 0.0000
vt 0.3276 0.2090 0.0000
vt 0.3315 0.1841 0.0000
vt 0.3462 0.1846 0.0000
vt 0.3403 0.1855 0.0000
vt 0.3418 0.2119 0.0000
vt 0.3408 0.2075 0.0000
vt 0.3408 0.2075 0.0000
vt 0.3462 0.1846 0.0000
vt 0.3403 0.1855 0.0000
vt 0.3354 0.2075 0.0000
vt 0.3354 0.2075 0.0000
vt 0.3462 0.2246 0.0000
vt 0.3379 0.2070 0.0000
vt 0.3438 0.1855 0.0000
vt 0.3438 0.1855 0.0000
vt 0.3379 0.2070 0.0000
vt 0.3408 0.2310 0.0000
vt 0.2217 0.1821 0.0000
vt 0.2188 0.2036 0.0000
vt 0.2539 0.1401 0.0000
vt 0.2505 0.2773 0.0000
vt 0.2495 0.2598 0.0000
vt 0.2798 0.1772 0.0000
vt 0.2813 0.1641 0.0000
vt 0.2788 0.1826 0.0000
vt 0.2773 0.2573 0.0000
vt 0.2749 0.2144 0.0000
vt 0.2764 0.2085 0.0000
vt 0.2739 0.2456 0.0000
vt 0.2739 0.2271 0.0000
vt 0.2979 0.1855 0.0000
vt 0.2949 0.2070 0.0000
vt 0.3013 0.1797 0.0000
vt 0.2964 0.2129 0.0000
vt 0.2969 0.2227 0.0000
vt 0.2983 0.2412 0.0000
vt 0.3037 0.2568 0.0000
vt 0.3027 0.1880 0.0000
vt 0.3003 0.2031 0.0000
vt 0.3052 0.1841 0.0000
vt 0.3018 0.2070 0.0000
vt 0.3345 0.1807 0.0000
vt 0.3447 0.2446 0.0000
vt 0.3521 0.1650 0.0000
vt 0.3486 0.1821 0.0000
vt 0.3257 0.1724 0.0000
vt 0.3555 0.1719 0.0000
vt 0.3608 0.1519 0.0000
vt 0.3584 0.2720 0.0000
vt 0.3296 0.1631 0.0000
vt 0.2817 0.1353 0.0000
vt 0.2783 0.2837 0.0000
vt 0.2822 0.1475 0.0000
vt 0.3086 0.1509 0.0000
vt 0.3125 0.1348 0.0000
vt 0.3101 0.2832 0.0000
vt 0.3042 0.1694 0.0000
vt 0.4038 0.2144 0.0000
vt 0.4038 0.2144 0.0000
vt 0.4038 0.2144 0.0000
vt 0.4038 0.2144 0.0000
vt 0.4038 0.2144 0.0000
vt 0.4038 0.2144 0.0000
vt 0.4038 0.2144 0.0000
vt 0.4038 0.2144 0.0000
vt 0.4038 0.2144 0.0000
vt 0.4038 0.2144 0.0000
vt 0.2524 0.1548 0.0000
vt 0.2524 0.1548 0.0000
vt 0.2524 0.1548 0.0000
vt 0.2412 0.2090 0.0000
vt 0.2412 0.2090 0.0000
vt 0.2451 0.1826 0.0000
vt 0.2388 0.2202 0.0000
vt 0.2451 0.1714 0.0000
vt 0.2451 0.1714 0.0000
vt 0.2451 0.1826 0.0000
vt 0.2451 0.1826 0.0000
vt 0.2432 0.1851 0.0000
vt 0.2432 0.1851 0.0000
vt 0.2432 0.1851 0.0000
vt 0.2432 0.1851 0.0000
vt 0.2388 0.2202 0.0000
vt 0.2388 0.2202 0.0000
vt 0.2451 0.2412 0.0000
vt 0.2451 0.2412 0.0000
vt 0.2412 0.2090 0.0000
vt 0.2412 0.2090 0.0000
vt 0.2412 0.2090 0.0000
vt 0.2412 0.2090 0.0000
vt 0.2412 0.2056 0.0000
vt 0.2412 0.2056 0.0000
vt 0.2451 0.1714 0.0000
vt 0.3188 0.2275 0.0000
vt 0.3188 0.2275 0.0000
vt 0.3188 0.2275 0.0000
vt 0.3188 0.2275 0.0000
vt 0.3188 0.2275 0.0000
vt 0.3184 0.2207 0.0000
vt 0.3184 0.2207 0.0000
vt 0.3184 0.2207 0.0000
vt 0.3184 0.2207 0.0000
vt 0.3291 0.2129 0.0000
vt 0.3291 0.2129 0.0000
vt 0.3291 0.2129 0.0000
vt 0.3291 0.2129 0.0000
vt 0.3276 0.2090 0.0000
vt 0.3276 0.2090 0.0000
vt 0.3276 0.2090 0.0000
vt 0.3276 0.2090 0.0000
vt 0.3276 0.2090 0.0000
vt 0.3276 0.2090 0.0000
vt 0.3315 0.1841 0.0000
vt 0.3315 0.1841 0.0000
vt 0.3315 0.1841 0.0000
vt 0.3315 0.1841 0.0000
vt 0.3315 0.1841 0.0000
vt 0.3462 0.1846 0.0000
vt 0.3462 0.1846 0.0000
vt 0.3462 0.1846 0.0000
vt 0.3462 0.1846 0.0000
vt 0.3403 0.1855 0.0000
vt 0.3403 0.1855 0.0000
vt 0.3403 0.1855 0.0000
vt 0.3418 0.2119 0.0000
vt 0.3418 0.2119 0.0000
vt 0.3418 0.2119 0.0000
vt 0.3418 0.2119 0.0000
vt 0.3418 0.2119 0.0000
vt 0.3408 0.2075 0.0000
vt 0.3408 0.2075 0.0000
vt 0.3408 0.2075 0.0000
vt 0.3354 0.2075 0.0000
vt 0.3354 0.2075 0.0000
vt 0.3354 0.2075 0.0000
vt 0.3462 0.2246 0.0000
vt 0.3462 0.2246 0.0000
vt 0.3462 0.2246 0.0000
vt 0.3379 0.2070 0.0000
vt 0.3379 0.2070 0.0000
vt 0.3438 0.1855 0.0000
vt 0.3438 0.1855 0.0000
vt 0.3438 0.1855 0.0000
vt 0.3408 0.2310 0.0000
vt 0.3408 0.2310 0.0000
vt 0.3408 0.2310 0.0000
vt 0.3408 0.2310 0.0000
vt 0.2217 0.1821 0.0000
vt 0.2217 0.1821 0.0000
vt 0.2217 0.1821 0.0000
vt 0.2188 0.2036 0.0000
vt 0.2188 0.2036 0.0000
vt 0.2505 0.2773 0.0000
vt 0.2495 0.2598 0.0000
vt 0.2495 0.2598 0.0000
vt 0.2798 0.1772 0.0000
vt 0.2798 0.1772 0.0000
vt 0.2798 0.1772 0.0000
vt 0.2798 0.1772 0.0000
vt 0.2798 0.1772 0.0000
vt 0.2798 0.1772 0.0000
vt 0.2813 0.1641 0.0000
vt 0.2813 0.1641 0.0000
vt 0.2813 0.1641 0.0000
vt 0.2813 0.1641 0.0000
vt 0.2813 0.1641 0.0000
vt 0.2788 0.1826 0.0000
vt 0.2788 0.1826 0.0000
vt 0.2788 0.1826 0.0000
vt 0.2788 0.1826 0.0000
vt 0.2773 0.2573 0.0000
vt 0.2773 0.2573 0.0000
vt 0.2773 0.2573 0.0000
vt 0.2773 0.2573 0.0000
vt 0.2749 0.2144 0.0000
vt 0.2749 0.2144 0.0000
vt 0.2749 0.2144 0.0000
vt 0.2749 0.2144 0.0000
vt 0.2749 0.2144 0.0000
vt 0.2749 0.2144 0.0000
vt 0.2764 0.2085 0.0000
vt 0.2764 0.2085 0.0000
vt 0.2764 0.2085 0.0000
vt 0.2764 0.2085 0.0000
vt 0.2764 0.2085 0.0000
vt 0.2764 0.2085 0.0000
vt 0.2739 0.2456 0.0000
vt 0.2739 0.2456 0.0000
vt 0.2739 0.2456 0.0000
vt 0.2739 0.2456 0.0000
vt 0.2739 0.2456 0.0000
vt 0.2739 0.2271 0.0000
vt 0.2739 0.2271 0.0000
vt 0.2739 0.2271 0.0000
vt 0.2739 0.2271 0.0000
vt 0.2739 0.2271 0.0000
vt 0.2979 0.1855 0.0000
vt 0.2979 0.1855 0.0000
vt 0.2979 0.1855 0.0000
vt 0.2979 0.1855 0.0000
vt 0.2979 0.1855 0.0000
vt 0.2979 0.1855 0.0000
vt 0.2949 0.2070 0.0000
vt 0.2949 0.2070 0.0000
vt 0.2949 0.2070 0.0000
vt 0.2949 0.2070 0.0000
vt 0.2949 0.2070 0.0000
vt 0.2949 0.2070 0.0000
vt 0.3013 0.1797 0.0000
vt 0.3013 0.1797 0.0000
vt 0.3013 0.1797 0.0000
vt 0.3013 0.1797 0.0000
vt 0.3013 0.1797 0.0000
vt 0.3013 0.1797 0.0000
vt 0.2964 0.2129 0.0000
vt 0.2964 0.2129 0.0000
vt 0.2964 0.2129 0.0000
vt 0.2964 0.2129 0.0000
vt 0.2964 0.2129 0.0000
vt 0.2964 0.2129 0.0000
vt 0.2969 0.2227 0.0000
vt 0.2969 0.2227 0.0000
vt 0.2969 0.2227 0.0000
vt 0.2969 0.2227 0.0000
vt 0.2969 0.2227 0.0000
vt 0.2983 0.2412 0.0000
vt 0.2983 0.2412 0.0000
vt 0.2983 0.2412 0.0000
vt 0.2983 0.2412 0.0000
vt 0.2983 0.2412 0.0000
vt 0.2983 0.2412 0.0000
vt 0.3037 0.2568 0.0000
vt 0.3037 0.2568 0.0000
vt 0.3037 0.2568 0.0000
vt 0.3037 0.2568 0.0000
vt 0.3037 0.2568 0.0000
vt 0.3037 0.2568 0.0000
vt 0.3027 0.1880 0.0000
vt 0.3027 0.1880 0.0000
vt 0.3027 0.1880 0.0000
vt 0.3027 0.1880 0.0000
vt 0.3003 0.2031 0.0000
vt 0.3003 0.2031 0.0000
vt 0.3052 0.1841 0.0000
vt 0.3052 0.1841 0.0000
vt 0.3052 0.1841 0.0000
vt 0.3052 0.1841 0.0000
vt 0.3052 0.1841 0.0000
vt 0.3018 0.2070 0.0000
vt 0.3018 0.2070 0.0000
vt 0.3018 0.2070 0.0000
vt 0.3018 0.2070 0.0000
vt 0.3018 0.2070 0.0000
vt 0.3345 0.1807 0.0000
vt 0.3345 0.1807 0.0000
vt 0.3345 0.1807 0.0000
vt 0.3345 0.1807 0.0000
vt 0.3447 0.2446 0.0000
vt 0.3447 0.2446 0.0000
vt 0.3447 0.2446 0.0000
vt 0.3447 0.2446 0.0000
vt 0.3521 0.1650 0.0000
vt 0.3521 0.1650 0.0000
vt 0.3521 0.1650 0.0000
vt 0.3521 0.1650 0.0000
vt 0.3521 0.1650 0.0000
vt 0.3486 0.1821 0.0000
vt 0.3486 0.1821 0.0000
vt 0.3486 0.1821 0.0000
vt 0.3486 0.1821 0.0000
vt 0.3486 0.1821 0.0000
vt 0.3257 0.1724 0.0000
vt 0.3257 0.1724 0.0000
vt 0.3257 0.1724 0.0000
vt 0.3257 0.1724 0.0000
vt 0.3257 0.1724 0.0000
vt 0.3555 0.1719 0.0000
vt 0.3555 0.1719 0.0000
vt 0.3555 0.1719 0.0000
vt 0.3608 0.1519 0.0000
vt 0.3584 0.2720 0.0000
vt 0.3584 0.2720 0.0000
vt 0.3296 0.1631 0.0000
vt 0.3296 0.1631 0.0000
vt 0.3296 0.1631 0.0000
vt 0.3296 0.1631 0.0000
vt 0.2817 0.1353 0.0000
vt 0.2817 0.1353 0.0000
vt 0.2783 0.2837 0.0000
vt 0.2783 0.2837 0.0000
vt 0.2822 0.1475 0.0000
vt 0.2822 0.1475 0.0000
vt 0.2822 0.1475 0.0000
vt 0.2822 0.1475 0.0000
vt 0.3086 0.1509 0.0000
vt 0.3086 0.1509 0.0000
vt 0.3086 0.1509 0.0000
vt 0.3086 0.1509 0.0000
vt 0.3086 0.1509 0.0000
vt 0.3086 0.1509 0.0000
vt 0.3125 0.1348 0.0000
vt 0.3125 0.1348 0.0000
vt 0.3125 0.1348 0.0000
vt 0.3101 0.2832 0.0000
vt 0.3042 0.1694 0.0000
vt 0.3042 0.1694 0.0000
vt 0.3042 0.1694 0.0000
vt 0.3042 0.1694 0.0000
# 329 texture coords

g Object050
usemtl 19___Default
s 1
f 1/29/1 2/30/2 3/36/3 
f 4/6/4 5/40/5 6/17/6 
f 7/4/7 5/172/8 4/95/9 
f 8/39/10 5/173/11 7/92/12 
f 7/93/13 9/5/14 8/169/15 
f 10/16/16 8/170/17 9/94/18 
f 11/15/19 8/171/20 10/114/21 
f 12/9/22 9/14/23 7/12/24 
f 7/108/25 13/13/26 12/100/27 
s 2
f 12/101/28 13/112/29 14/49/30 
f 14/202/31 15/46/32 12/102/33 
s 4
f 9/8/34 12/103/35 15/188/36 
f 15/189/37 16/44/38 9/98/39 
f 10/7/40 9/99/41 16/177/42 
f 14/203/43 13/113/44 7/109/45 
f 7/110/46 17/48/47 14/204/48 
f 18/53/49 14/205/50 17/196/51 
s 2
f 14/206/52 18/224/53 19/52/54 
f 19/218/55 15/190/56 14/207/57 
s 4
f 16/178/58 15/191/59 19/219/60 
f 19/220/61 20/54/62 16/179/63 
f 16/180/64 20/230/65 21/78/66 
f 21/326/67 22/45/68 16/181/69 
f 16/182/70 22/183/71 10/96/72 
f 11/3/73 10/97/74 22/184/75 
f 17/197/76 7/111/77 4/10/78 
f 4/104/79 23/51/80 17/198/81 
f 17/199/82 23/213/83 24/56/84 
f 24/242/85 25/55/86 17/200/87 
f 17/201/88 25/236/89 18/225/90 
f 18/226/91 25/237/92 26/62/93 
s 2
f 26/270/94 27/60/95 18/227/96 
f 18/228/97 27/263/98 28/59/99 
f 28/259/100 19/221/101 18/229/102 
s 4
f 23/214/103 4/105/104 6/11/105 
f 6/106/106 29/50/107 23/215/108 
f 30/57/109 23/216/110 29/208/111 
f 30/247/112 24/243/113 23/217/114 
f 24/244/115 30/248/116 31/18/117 
f 31/115/118 32/19/119 24/245/120 
f 25/238/121 24/246/122 32/120/123 
f 32/121/124 33/20/125 25/239/126 
f 25/240/127 33/124/128 34/21/129 
f 34/128/130 26/271/131 25/241/132 
f 29/209/133 6/107/134 5/43/135 
f 5/175/136 35/47/137 29/210/138 
f 36/58/139 29/211/140 35/192/141 
f 36/253/142 30/249/143 29/212/144 
f 30/250/145 36/254/146 37/64/147 
f 37/279/148 38/38/149 30/251/150 
f 38/165/151 31/116/152 30/252/153 
f 38/166/154 39/33/155 31/117/156 
f 31/118/157 39/157/158 40/26/159 
f 40/146/160 32/122/161 31/119/162 
f 33/125/163 32/123/164 40/147/165 
s 2
f 35/193/166 5/176/167 8/42/168 
f 8/174/169 41/73/170 35/194/171 
f 36/255/172 35/195/173 41/310/174 
f 41/311/175 42/77/176 36/256/177 
f 36/257/178 42/325/179 43/70/180 
f 43/302/181 37/280/182 36/258/183 
f 43/303/184 44/2/185 37/281/186 
s 4
f 37/282/187 44/85/188 38/167/189 
f 38/168/190 44/86/191 39/158/192 
f 39/159/193 44/87/194 40/148/195 
f 40/149/196 44/88/197 45/27/198 
f 40/150/199 45/151/200 33/126/201 
f 34/129/202 33/127/203 45/152/204 
s 2
f 28/260/205 27/264/206 26/272/207 
f 26/273/208 46/61/209 28/261/210 
f 19/222/211 28/262/212 46/265/213 
s 4
f 46/266/214 20/231/215 19/223/216 
f 20/232/217 46/267/218 47/23/219 
f 47/134/220 48/63/221 20/233/222 
f 20/234/223 48/275/224 49/67/225 
f 49/293/226 21/327/227 20/235/228 
s 2
f 46/268/229 26/274/230 34/130/231 
f 34/131/232 47/135/233 46/269/234 
f 2/25/235 47/136/236 34/132/237 
s 4
f 47/137/238 2/143/239 1/24/240 
f 1/139/241 48/276/242 47/138/243 
f 48/277/244 1/140/245 50/66/246 
f 50/288/247 49/294/248 48/278/249 
f 51/71/250 49/295/251 50/289/252 
f 49/296/253 51/304/254 52/75/255 
f 52/316/256 21/328/257 49/297/258 
f 21/329/259 52/317/260 22/185/261 
s 2
f 34/133/262 53/31/263 2/144/264 
s 8
f 3/35/265 2/145/266 53/154/267 
f 53/155/268 54/34/269 3/162/270 
s 16
f 54/160/271 44/1/272 3/163/273 
f 3/164/274 44/79/275 1/141/276 
s 8
f 1/142/277 44/80/278 50/290/279 
f 50/291/280 44/81/281 55/68/282 
s 4
f 50/292/283 55/298/284 51/305/285 
f 56/65/286 51/306/287 55/299/288 
f 52/318/289 51/307/290 56/283/291 
s 8
f 42/76/292 52/319/293 56/284/294 
f 42/322/295 57/74/296 52/320/297 
s 4
f 22/186/298 52/321/299 57/312/300 
f 22/187/301 57/313/302 11/89/303 
s 16
f 45/27/304 44/82/305 54/161/306 
s 8
f 41/72/307 57/314/308 42/323/309 
f 11/90/310 57/315/311 41/308/312 
f 41/309/313 8/41/314 11/91/315 
f 56/285/316 43/69/317 42/324/318 
f 56/286/319 44/83/320 43/301/321 
f 55/300/322 44/84/323 56/287/324 
s 1
f 54/37/325 53/32/326 45/28/327 
s 4
f 45/153/328 53/156/329 34/22/330 
# 0 polygons - 110 triangles

