# 3ds Max Wavefront OBJ Exporter v0.97b - (c)2007 guruware
# File Created: 10.05.2015 00:27:17

mtllib Thumb V2.mtl

#
# object Object050
#

v  0.0353 -1.1570 2.0410
v  0.1606 -1.1470 2.1639
v  0.1234 -1.1794 2.0550
v  0.9945 -3.9847 1.3103
v  0.6894 -3.7293 1.0489
v  0.9497 -3.8152 1.1429
v  0.9043 -4.1082 1.4279
v  0.3619 -3.7714 1.0900
v  0.3776 -4.2039 1.4606
v  0.2254 -4.1017 1.3883
v  0.1700 -3.9230 1.2329
v  0.4289 -4.2240 1.5080
v  0.8766 -4.1507 1.4679
v  0.9852 -3.1234 2.1054
v  0.4672 -3.2381 2.1977
v  0.3979 -3.2390 2.1236
v  1.0098 -3.1079 2.0143
v  0.8894 -2.5360 2.2046
v  0.4593 -2.6350 2.3044
v  0.3511 -2.5536 2.2895
v  0.2084 -2.5923 2.1460
v  0.1914 -3.2498 1.9286
v  1.1004 -3.0725 1.7655
v  1.0066 -2.4232 1.9553
v  0.9510 -2.4164 2.1402
v  0.8894 -2.2486 2.2727
v  0.8137 -2.3663 2.2823
v  0.5048 -2.4390 2.3592
v  1.0180 -3.0949 1.3568
v  0.9949 -2.4737 1.5441
v  0.9484 -1.7150 1.7023
v  0.9554 -1.6316 1.9110
v  0.8034 -1.3086 1.9824
v  0.7598 -1.2830 2.1105
v  0.7926 -3.0833 1.2269
v  0.7249 -2.5010 1.2850
v  0.5484 -1.6020 1.0667
v  0.8029 -1.4485 1.3070
v  0.7682 -1.2720 1.3620
v  0.7607 -1.0905 1.6575
v  0.2397 -3.1751 1.3220
v  0.1457 -2.5882 1.4209
v  -0.1242 -1.6876 1.2818
v  -0.1112 -1.0233 0.6866
v  0.6703 -1.0334 1.8045
v  0.4117 -2.3617 2.3958
v  0.2243 -1.4023 2.2973
v  0.1212 -1.4538 2.2178
v  0.0482 -1.8221 2.1941
v  -0.1080 -1.2505 1.9748
v  -0.0562 -1.9239 1.9417
v  0.0175 -2.6467 1.7725
v  0.6535 -1.0440 1.9803
v  0.6223 -1.0804 1.8708
v  -0.2439 -1.4445 1.7116
v  -0.2416 -1.6100 1.6526
v  0.0793 -3.2470 1.5289
# 57 vertices

vn 0.2837 0.8883 -0.3611
vn 0.2837 0.8883 -0.3611
vn 0.2837 0.8883 -0.3611
vn 0.0268 -0.6993 -0.7143
vn 0.0094 -0.7045 -0.7096
vn 0.0276 -0.6988 -0.7148
vn 0.0455 -0.6940 -0.7185
vn 0.0094 -0.7045 -0.7096
vn 0.0268 -0.6993 -0.7143
vn 0.0076 -0.6731 -0.7395
vn 0.0094 -0.7045 -0.7096
vn 0.0455 -0.6940 -0.7185
vn 0.0455 -0.6940 -0.7185
vn 0.0471 -0.7195 -0.6929
vn 0.0076 -0.6731 -0.7395
vn -0.0688 -0.6529 -0.7543
vn 0.0076 -0.6731 -0.7395
vn 0.0471 -0.7195 -0.6929
vn -0.0346 -0.6620 -0.7487
vn 0.0076 -0.6731 -0.7395
vn -0.0688 -0.6529 -0.7543
vn 0.1216 -0.8522 -0.5090
vn 0.0471 -0.7195 -0.6929
vn 0.0455 -0.6940 -0.7185
vn 0.0455 -0.6940 -0.7185
vn 0.0511 -0.7018 -0.7105
vn 0.1216 -0.8522 -0.5090
vn 0.1900 -0.5408 0.8194
vn 0.1617 -0.5327 0.8307
vn 0.2382 -0.3459 0.9075
vn 0.2382 -0.3459 0.9075
vn 0.2446 -0.3905 0.8875
vn 0.1900 -0.5408 0.8194
vn -0.6572 -0.4157 0.6287
vn -0.7034 -0.3889 0.5950
vn -0.7072 -0.2443 0.6635
vn -0.7072 -0.2443 0.6635
vn -0.6626 -0.3077 0.6829
vn -0.6572 -0.4157 0.6287
vn -0.8032 -0.3408 0.4886
vn -0.6572 -0.4157 0.6287
vn -0.6626 -0.3077 0.6829
vn 0.9659 -0.0379 0.2560
vn 0.9026 -0.2918 0.3164
vn 0.8962 -0.2950 0.3313
vn 0.8962 -0.2950 0.3313
vn 0.9513 -0.0900 0.2949
vn 0.9659 -0.0379 0.2560
vn 0.7972 -0.0642 0.6004
vn 0.9659 -0.0379 0.2560
vn 0.9513 -0.0900 0.2949
vn 0.2382 -0.3459 0.9075
vn 0.2922 -0.2041 0.9343
vn 0.2395 -0.2252 0.9444
vn 0.2395 -0.2252 0.9444
vn 0.2446 -0.3905 0.8875
vn 0.2382 -0.3459 0.9075
vn -0.6626 -0.3077 0.6829
vn -0.7072 -0.2443 0.6635
vn -0.3540 -0.2702 0.8954
vn -0.3540 -0.2702 0.8954
vn -0.5457 -0.2368 0.8039
vn -0.6626 -0.3077 0.6829
vn -0.6626 -0.3077 0.6829
vn -0.5457 -0.2368 0.8039
vn -0.7650 -0.1945 0.6139
vn -0.7650 -0.1945 0.6139
vn -0.8023 -0.2896 0.5219
vn -0.6626 -0.3077 0.6829
vn -0.6626 -0.3077 0.6829
vn -0.8023 -0.2896 0.5219
vn -0.8032 -0.3408 0.4886
vn -0.9667 -0.1683 0.1926
vn -0.8032 -0.3408 0.4886
vn -0.8023 -0.2896 0.5219
vn 0.9513 -0.0900 0.2949
vn 0.8962 -0.2950 0.3313
vn 0.9753 -0.1854 0.1201
vn 0.9753 -0.1854 0.1201
vn 0.9952 -0.0386 0.0903
vn 0.9513 -0.0900 0.2949
vn 0.9513 -0.0900 0.2949
vn 0.9952 -0.0386 0.0903
vn 0.9865 0.0764 0.1449
vn 0.9865 0.0764 0.1449
vn 0.9063 0.0062 0.4227
vn 0.9513 -0.0900 0.2949
vn 0.9513 -0.0900 0.2949
vn 0.9063 0.0062 0.4227
vn 0.7972 -0.0642 0.6004
vn 0.7972 -0.0642 0.6004
vn 0.9063 0.0062 0.4227
vn 0.9485 0.1154 0.2951
vn 0.2711 0.0366 0.9618
vn 0.3298 -0.1869 0.9254
vn 0.2922 -0.2041 0.9343
vn 0.2922 -0.2041 0.9343
vn 0.3298 -0.1869 0.9254
vn 0.2305 -0.2378 0.9436
vn 0.2305 -0.2378 0.9436
vn 0.2395 -0.2252 0.9444
vn 0.2922 -0.2041 0.9343
vn 0.9952 -0.0386 0.0903
vn 0.9753 -0.1854 0.1201
vn 0.8159 0.1067 -0.5682
vn 0.8159 0.1067 -0.5682
vn 0.8235 0.1040 -0.5577
vn 0.9952 -0.0386 0.0903
vn 0.9162 0.1139 -0.3842
vn 0.9952 -0.0386 0.0903
vn 0.8235 0.1040 -0.5577
vn 0.9162 0.1139 -0.3842
vn 0.9865 0.0764 0.1449
vn 0.9952 -0.0386 0.0903
vn 0.9865 0.0764 0.1449
vn 0.9162 0.1139 -0.3842
vn 0.9759 0.1522 -0.1561
vn 0.9759 0.1522 -0.1561
vn 0.9366 0.2191 0.2733
vn 0.9865 0.0764 0.1449
vn 0.9063 0.0062 0.4227
vn 0.9865 0.0764 0.1449
vn 0.9366 0.2191 0.2733
vn 0.9366 0.2191 0.2733
vn 0.8937 0.3758 0.2449
vn 0.9063 0.0062 0.4227
vn 0.9063 0.0062 0.4227
vn 0.8937 0.3758 0.2449
vn 0.9142 0.3357 0.2271
vn 0.9142 0.3357 0.2271
vn 0.9485 0.1154 0.2951
vn 0.9063 0.0062 0.4227
vn 0.8235 0.1040 -0.5577
vn 0.8159 0.1067 -0.5682
vn 0.4176 0.2124 -0.8835
vn 0.4176 0.2124 -0.8835
vn 0.4995 0.1495 -0.8533
vn 0.8235 0.1040 -0.5577
vn 0.6665 0.0838 -0.7408
vn 0.8235 0.1040 -0.5577
vn 0.4995 0.1495 -0.8533
vn 0.6665 0.0838 -0.7408
vn 0.9162 0.1139 -0.3842
vn 0.8235 0.1040 -0.5577
vn 0.9162 0.1139 -0.3842
vn 0.6665 0.0838 -0.7408
vn 0.6543 0.0897 -0.7509
vn 0.6543 0.0897 -0.7509
vn 0.8277 0.1856 -0.5296
vn 0.9162 0.1139 -0.3842
vn 0.8277 0.1856 -0.5296
vn 0.9759 0.1522 -0.1561
vn 0.9162 0.1139 -0.3842
vn 0.8277 0.1856 -0.5296
vn 0.7766 0.4627 -0.4277
vn 0.9759 0.1522 -0.1561
vn 0.9759 0.1522 -0.1561
vn 0.7766 0.4627 -0.4277
vn 0.7177 0.6877 -0.1094
vn 0.7177 0.6877 -0.1094
vn 0.9366 0.2191 0.2733
vn 0.9759 0.1522 -0.1561
vn 0.8937 0.3758 0.2449
vn 0.9366 0.2191 0.2733
vn 0.7177 0.6877 -0.1094
vn -0.1885 0.1816 -0.9651
vn -0.1555 0.2854 -0.9457
vn -0.1808 0.2995 -0.9368
vn -0.1808 0.2995 -0.9368
vn -0.2137 0.2055 -0.9550
vn -0.1885 0.1816 -0.9651
vn -0.2210 -0.0692 -0.9728
vn -0.1885 0.1816 -0.9651
vn -0.2137 0.2055 -0.9550
vn -0.2137 0.2055 -0.9550
vn -0.2209 -0.0500 -0.9740
vn -0.2210 -0.0692 -0.9728
vn -0.2210 -0.0692 -0.9728
vn -0.2209 -0.0500 -0.9740
vn -0.2030 -0.4515 -0.8689
vn -0.2030 -0.4515 -0.8689
vn -0.2213 -0.4436 -0.8685
vn -0.2210 -0.0692 -0.9728
vn -0.2030 -0.4515 -0.8689
vn -0.1521 -0.6579 -0.7376
vn -0.2213 -0.4436 -0.8685
vn 0.6543 0.0897 -0.7509
vn 0.5843 0.5379 -0.6077
vn 0.8277 0.1856 -0.5296
vn 0.8277 0.1856 -0.5296
vn 0.5843 0.5379 -0.6077
vn 0.7766 0.4627 -0.4277
vn 0.7766 0.4627 -0.4277
vn 0.5843 0.5379 -0.6077
vn 0.7177 0.6877 -0.1094
vn 0.7177 0.6877 -0.1094
vn 0.5843 0.5379 -0.6077
vn 0.7023 0.7056 0.0944
vn 0.7177 0.6877 -0.1094
vn 0.7023 0.7056 0.0944
vn 0.8937 0.3758 0.2449
vn 0.9142 0.3357 0.2271
vn 0.8937 0.3758 0.2449
vn 0.7023 0.7056 0.0944
vn 0.2305 -0.2378 0.9436
vn 0.3298 -0.1869 0.9254
vn 0.2711 0.0366 0.9618
vn 0.2711 0.0366 0.9618
vn 0.2278 -0.0130 0.9736
vn 0.2305 -0.2378 0.9436
vn 0.2395 -0.2252 0.9444
vn 0.2305 -0.2378 0.9436
vn 0.2278 -0.0130 0.9736
vn -0.7343 -0.1365 0.6649
vn -0.5457 -0.2368 0.8039
vn -0.3540 -0.2702 0.8954
vn -0.5457 -0.2368 0.8039
vn -0.7343 -0.1365 0.6649
vn -0.6490 0.0779 0.7568
vn -0.6490 0.0779 0.7568
vn -0.6263 0.0960 0.7736
vn -0.5457 -0.2368 0.8039
vn -0.5457 -0.2368 0.8039
vn -0.6263 0.0960 0.7736
vn -0.6683 -0.0662 0.7409
vn -0.6683 -0.0662 0.7409
vn -0.7650 -0.1945 0.6139
vn -0.5457 -0.2368 0.8039
vn 0.2278 -0.0130 0.9736
vn 0.2711 0.0366 0.9618
vn 0.2324 0.3560 0.9051
vn 0.2324 0.3560 0.9051
vn 0.2482 0.3181 0.9150
vn 0.2278 -0.0130 0.9736
vn 0.1895 0.5039 0.8427
vn 0.2482 0.3181 0.9150
vn 0.2324 0.3560 0.9051
vn -0.6490 0.0779 0.7568
vn -0.6953 0.1887 0.6935
vn -0.6116 0.2612 0.7468
vn -0.6116 0.2612 0.7468
vn -0.6263 0.0960 0.7736
vn -0.6490 0.0779 0.7568
vn -0.6263 0.0960 0.7736
vn -0.6116 0.2612 0.7468
vn -0.7503 0.0877 0.6552
vn -0.7503 0.0877 0.6552
vn -0.6683 -0.0662 0.7409
vn -0.6263 0.0960 0.7736
vn -0.8933 -0.1591 0.4203
vn -0.6683 -0.0662 0.7409
vn -0.7503 0.0877 0.6552
vn -0.6683 -0.0662 0.7409
vn -0.8933 -0.1591 0.4203
vn -0.8893 -0.1759 0.4222
vn -0.8893 -0.1759 0.4222
vn -0.7650 -0.1945 0.6139
vn -0.6683 -0.0662 0.7409
vn -0.7650 -0.1945 0.6139
vn -0.8893 -0.1759 0.4222
vn -0.8023 -0.2896 0.5219
vn 0.2324 0.3560 0.9051
vn 0.1946 0.5347 0.8223
vn 0.1895 0.5039 0.8427
vn -0.2684 0.9432 -0.1955
vn -0.2679 0.9447 -0.1893
vn -0.2709 0.9354 -0.2271
vn -0.2709 0.9354 -0.2271
vn -0.2713 0.9338 -0.2331
vn -0.2684 0.9432 -0.1955
vn -0.2777 0.9358 0.2172
vn -0.1345 0.9793 0.1516
vn 0.0362 0.9936 0.1071
vn 0.0362 0.9936 0.1071
vn -0.1345 0.9793 0.1516
vn 0.2360 0.9692 0.0701
vn -0.5863 0.7975 0.1421
vn -0.9736 0.2153 -0.0753
vn -0.6909 0.7117 0.1273
vn -0.6909 0.7117 0.1273
vn -0.9736 0.2153 -0.0753
vn -0.9560 0.2934 -0.0031
vn -0.7503 0.0877 0.6552
vn -0.8729 -0.1138 0.4745
vn -0.8933 -0.1591 0.4203
vn -0.9015 -0.1631 0.4008
vn -0.8933 -0.1591 0.4203
vn -0.8729 -0.1138 0.4745
vn -0.8893 -0.1759 0.4222
vn -0.8933 -0.1591 0.4203
vn -0.9015 -0.1631 0.4008
vn -0.9159 -0.1330 -0.3786
vn -0.9265 -0.1180 -0.3573
vn -0.9656 -0.1564 -0.2077
vn -0.9159 -0.1330 -0.3786
vn -0.8319 0.0660 -0.5510
vn -0.9265 -0.1180 -0.3573
vn -0.8023 -0.2896 0.5219
vn -0.8893 -0.1759 0.4222
vn -0.9384 -0.2256 0.2617
vn -0.8023 -0.2896 0.5219
vn -0.9384 -0.2256 0.2617
vn -0.9667 -0.1683 0.1926
vn -0.4209 0.8554 0.3020
vn -0.1345 0.9793 0.1516
vn -0.2777 0.9358 0.2172
vn -0.7846 0.0645 -0.6166
vn -0.8319 0.0660 -0.5510
vn -0.9159 -0.1330 -0.3786
vn -0.7044 0.1483 -0.6942
vn -0.8319 0.0660 -0.5510
vn -0.7846 0.0645 -0.6166
vn -0.7846 0.0645 -0.6166
vn -0.6636 0.1491 -0.7330
vn -0.7044 0.1483 -0.6942
vn -0.9656 -0.1564 -0.2077
vn -0.9357 -0.2562 -0.2426
vn -0.9159 -0.1330 -0.3786
vn -0.9656 -0.1564 -0.2077
vn -0.9736 0.2153 -0.0753
vn -0.9357 -0.2562 -0.2426
vn -0.9560 0.2934 -0.0031
vn -0.9736 0.2153 -0.0753
vn -0.9656 -0.1564 -0.2077
vn -0.7179 0.6956 -0.0266
vn -0.7179 0.6956 -0.0266
vn -0.7179 0.6956 -0.0266
vn 0.7023 0.7056 0.0944
vn 0.8840 0.4540 0.1117
vn 0.9142 0.3357 0.2271
# 330 vertex normals

vt 0.4038 0.2144 0.0000
vt 0.4038 0.2144 0.0000
vt 0.2524 0.1548 0.0000
vt 0.2412 0.2090 0.0000
vt 0.2451 0.1826 0.0000
vt 0.2388 0.2202 0.0000
vt 0.2451 0.1714 0.0000
vt 0.2451 0.1826 0.0000
vt 0.2432 0.1851 0.0000
vt 0.2388 0.2202 0.0000
vt 0.2451 0.2412 0.0000
vt 0.2412 0.2090 0.0000
vt 0.2412 0.2056 0.0000
vt 0.2451 0.1826 0.0000
vt 0.2324 0.1714 0.0000
vt 0.2451 0.1714 0.0000
vt 0.2261 0.2173 0.0000
vt 0.3188 0.2275 0.0000
vt 0.3184 0.2207 0.0000
vt 0.3291 0.2129 0.0000
vt 0.3276 0.2090 0.0000
vt 0.3276 0.2090 0.0000
vt 0.3315 0.1841 0.0000
vt 0.3462 0.1846 0.0000
vt 0.3403 0.1855 0.0000
vt 0.3418 0.2119 0.0000
vt 0.3408 0.2075 0.0000
vt 0.3408 0.2075 0.0000
vt 0.3462 0.1846 0.0000
vt 0.3403 0.1855 0.0000
vt 0.3354 0.2075 0.0000
vt 0.3354 0.2075 0.0000
vt 0.3462 0.2246 0.0000
vt 0.3379 0.2070 0.0000
vt 0.3438 0.1855 0.0000
vt 0.3438 0.1855 0.0000
vt 0.3379 0.2070 0.0000
vt 0.3408 0.2310 0.0000
vt 0.2217 0.1821 0.0000
vt 0.2188 0.2036 0.0000
vt 0.2539 0.1401 0.0000
vt 0.2505 0.2773 0.0000
vt 0.2495 0.2598 0.0000
vt 0.2798 0.1772 0.0000
vt 0.2813 0.1641 0.0000
vt 0.2788 0.1826 0.0000
vt 0.2773 0.2573 0.0000
vt 0.2749 0.2144 0.0000
vt 0.2764 0.2085 0.0000
vt 0.2739 0.2456 0.0000
vt 0.2739 0.2271 0.0000
vt 0.2979 0.1855 0.0000
vt 0.2949 0.2070 0.0000
vt 0.3013 0.1797 0.0000
vt 0.2964 0.2129 0.0000
vt 0.2969 0.2227 0.0000
vt 0.2983 0.2412 0.0000
vt 0.3037 0.2568 0.0000
vt 0.3027 0.1880 0.0000
vt 0.3003 0.2031 0.0000
vt 0.3052 0.1841 0.0000
vt 0.3018 0.2070 0.0000
vt 0.3345 0.1807 0.0000
vt 0.3447 0.2446 0.0000
vt 0.3521 0.1650 0.0000
vt 0.3486 0.1821 0.0000
vt 0.3257 0.1724 0.0000
vt 0.3555 0.1719 0.0000
vt 0.3608 0.1519 0.0000
vt 0.3584 0.2720 0.0000
vt 0.3296 0.1631 0.0000
vt 0.2817 0.1353 0.0000
vt 0.2783 0.2837 0.0000
vt 0.2822 0.1475 0.0000
vt 0.3086 0.1509 0.0000
vt 0.3125 0.1348 0.0000
vt 0.3101 0.2832 0.0000
vt 0.3042 0.1694 0.0000
vt 0.4038 0.2144 0.0000
vt 0.4038 0.2144 0.0000
vt 0.4038 0.2144 0.0000
vt 0.4038 0.2144 0.0000
vt 0.4038 0.2144 0.0000
vt 0.4038 0.2144 0.0000
vt 0.4038 0.2144 0.0000
vt 0.4038 0.2144 0.0000
vt 0.4038 0.2144 0.0000
vt 0.4038 0.2144 0.0000
vt 0.2524 0.1548 0.0000
vt 0.2524 0.1548 0.0000
vt 0.2524 0.1548 0.0000
vt 0.2412 0.2090 0.0000
vt 0.2412 0.2090 0.0000
vt 0.2451 0.1826 0.0000
vt 0.2388 0.2202 0.0000
vt 0.2451 0.1714 0.0000
vt 0.2451 0.1714 0.0000
vt 0.2451 0.1826 0.0000
vt 0.2451 0.1826 0.0000
vt 0.2432 0.1851 0.0000
vt 0.2432 0.1851 0.0000
vt 0.2432 0.1851 0.0000
vt 0.2432 0.1851 0.0000
vt 0.2388 0.2202 0.0000
vt 0.2388 0.2202 0.0000
vt 0.2451 0.2412 0.0000
vt 0.2451 0.2412 0.0000
vt 0.2412 0.2090 0.0000
vt 0.2412 0.2090 0.0000
vt 0.2412 0.2090 0.0000
vt 0.2412 0.2090 0.0000
vt 0.2412 0.2056 0.0000
vt 0.2412 0.2056 0.0000
vt 0.2451 0.1714 0.0000
vt 0.3188 0.2275 0.0000
vt 0.3188 0.2275 0.0000
vt 0.3188 0.2275 0.0000
vt 0.3188 0.2275 0.0000
vt 0.3188 0.2275 0.0000
vt 0.3184 0.2207 0.0000
vt 0.3184 0.2207 0.0000
vt 0.3184 0.2207 0.0000
vt 0.3184 0.2207 0.0000
vt 0.3291 0.2129 0.0000
vt 0.3291 0.2129 0.0000
vt 0.3291 0.2129 0.0000
vt 0.3291 0.2129 0.0000
vt 0.3276 0.2090 0.0000
vt 0.3276 0.2090 0.0000
vt 0.3276 0.2090 0.0000
vt 0.3276 0.2090 0.0000
vt 0.3276 0.2090 0.0000
vt 0.3276 0.2090 0.0000
vt 0.3315 0.1841 0.0000
vt 0.3315 0.1841 0.0000
vt 0.3315 0.1841 0.0000
vt 0.3315 0.1841 0.0000
vt 0.3315 0.1841 0.0000
vt 0.3462 0.1846 0.0000
vt 0.3462 0.1846 0.0000
vt 0.3462 0.1846 0.0000
vt 0.3462 0.1846 0.0000
vt 0.3403 0.1855 0.0000
vt 0.3403 0.1855 0.0000
vt 0.3403 0.1855 0.0000
vt 0.3418 0.2119 0.0000
vt 0.3418 0.2119 0.0000
vt 0.3418 0.2119 0.0000
vt 0.3418 0.2119 0.0000
vt 0.3418 0.2119 0.0000
vt 0.3408 0.2075 0.0000
vt 0.3408 0.2075 0.0000
vt 0.3408 0.2075 0.0000
vt 0.3354 0.2075 0.0000
vt 0.3354 0.2075 0.0000
vt 0.3354 0.2075 0.0000
vt 0.3462 0.2246 0.0000
vt 0.3462 0.2246 0.0000
vt 0.3462 0.2246 0.0000
vt 0.3379 0.2070 0.0000
vt 0.3379 0.2070 0.0000
vt 0.3438 0.1855 0.0000
vt 0.3438 0.1855 0.0000
vt 0.3438 0.1855 0.0000
vt 0.3408 0.2310 0.0000
vt 0.3408 0.2310 0.0000
vt 0.3408 0.2310 0.0000
vt 0.3408 0.2310 0.0000
vt 0.2217 0.1821 0.0000
vt 0.2217 0.1821 0.0000
vt 0.2217 0.1821 0.0000
vt 0.2188 0.2036 0.0000
vt 0.2188 0.2036 0.0000
vt 0.2505 0.2773 0.0000
vt 0.2495 0.2598 0.0000
vt 0.2495 0.2598 0.0000
vt 0.2798 0.1772 0.0000
vt 0.2798 0.1772 0.0000
vt 0.2798 0.1772 0.0000
vt 0.2798 0.1772 0.0000
vt 0.2798 0.1772 0.0000
vt 0.2798 0.1772 0.0000
vt 0.2813 0.1641 0.0000
vt 0.2813 0.1641 0.0000
vt 0.2813 0.1641 0.0000
vt 0.2813 0.1641 0.0000
vt 0.2813 0.1641 0.0000
vt 0.2788 0.1826 0.0000
vt 0.2788 0.1826 0.0000
vt 0.2788 0.1826 0.0000
vt 0.2788 0.1826 0.0000
vt 0.2773 0.2573 0.0000
vt 0.2773 0.2573 0.0000
vt 0.2773 0.2573 0.0000
vt 0.2773 0.2573 0.0000
vt 0.2749 0.2144 0.0000
vt 0.2749 0.2144 0.0000
vt 0.2749 0.2144 0.0000
vt 0.2749 0.2144 0.0000
vt 0.2749 0.2144 0.0000
vt 0.2749 0.2144 0.0000
vt 0.2764 0.2085 0.0000
vt 0.2764 0.2085 0.0000
vt 0.2764 0.2085 0.0000
vt 0.2764 0.2085 0.0000
vt 0.2764 0.2085 0.0000
vt 0.2764 0.2085 0.0000
vt 0.2739 0.2456 0.0000
vt 0.2739 0.2456 0.0000
vt 0.2739 0.2456 0.0000
vt 0.2739 0.2456 0.0000
vt 0.2739 0.2456 0.0000
vt 0.2739 0.2271 0.0000
vt 0.2739 0.2271 0.0000
vt 0.2739 0.2271 0.0000
vt 0.2739 0.2271 0.0000
vt 0.2739 0.2271 0.0000
vt 0.2979 0.1855 0.0000
vt 0.2979 0.1855 0.0000
vt 0.2979 0.1855 0.0000
vt 0.2979 0.1855 0.0000
vt 0.2979 0.1855 0.0000
vt 0.2979 0.1855 0.0000
vt 0.2949 0.2070 0.0000
vt 0.2949 0.2070 0.0000
vt 0.2949 0.2070 0.0000
vt 0.2949 0.2070 0.0000
vt 0.2949 0.2070 0.0000
vt 0.2949 0.2070 0.0000
vt 0.3013 0.1797 0.0000
vt 0.3013 0.1797 0.0000
vt 0.3013 0.1797 0.0000
vt 0.3013 0.1797 0.0000
vt 0.3013 0.1797 0.0000
vt 0.3013 0.1797 0.0000
vt 0.2964 0.2129 0.0000
vt 0.2964 0.2129 0.0000
vt 0.2964 0.2129 0.0000
vt 0.2964 0.2129 0.0000
vt 0.2964 0.2129 0.0000
vt 0.2964 0.2129 0.0000
vt 0.2969 0.2227 0.0000
vt 0.2969 0.2227 0.0000
vt 0.2969 0.2227 0.0000
vt 0.2969 0.2227 0.0000
vt 0.2969 0.2227 0.0000
vt 0.2983 0.2412 0.0000
vt 0.2983 0.2412 0.0000
vt 0.2983 0.2412 0.0000
vt 0.2983 0.2412 0.0000
vt 0.2983 0.2412 0.0000
vt 0.2983 0.2412 0.0000
vt 0.3037 0.2568 0.0000
vt 0.3037 0.2568 0.0000
vt 0.3037 0.2568 0.0000
vt 0.3037 0.2568 0.0000
vt 0.3037 0.2568 0.0000
vt 0.3037 0.2568 0.0000
vt 0.3027 0.1880 0.0000
vt 0.3027 0.1880 0.0000
vt 0.3027 0.1880 0.0000
vt 0.3027 0.1880 0.0000
vt 0.3003 0.2031 0.0000
vt 0.3003 0.2031 0.0000
vt 0.3052 0.1841 0.0000
vt 0.3052 0.1841 0.0000
vt 0.3052 0.1841 0.0000
vt 0.3052 0.1841 0.0000
vt 0.3052 0.1841 0.0000
vt 0.3018 0.2070 0.0000
vt 0.3018 0.2070 0.0000
vt 0.3018 0.2070 0.0000
vt 0.3018 0.2070 0.0000
vt 0.3018 0.2070 0.0000
vt 0.3345 0.1807 0.0000
vt 0.3345 0.1807 0.0000
vt 0.3345 0.1807 0.0000
vt 0.3345 0.1807 0.0000
vt 0.3447 0.2446 0.0000
vt 0.3447 0.2446 0.0000
vt 0.3447 0.2446 0.0000
vt 0.3447 0.2446 0.0000
vt 0.3521 0.1650 0.0000
vt 0.3521 0.1650 0.0000
vt 0.3521 0.1650 0.0000
vt 0.3521 0.1650 0.0000
vt 0.3521 0.1650 0.0000
vt 0.3486 0.1821 0.0000
vt 0.3486 0.1821 0.0000
vt 0.3486 0.1821 0.0000
vt 0.3486 0.1821 0.0000
vt 0.3486 0.1821 0.0000
vt 0.3257 0.1724 0.0000
vt 0.3257 0.1724 0.0000
vt 0.3257 0.1724 0.0000
vt 0.3257 0.1724 0.0000
vt 0.3257 0.1724 0.0000
vt 0.3555 0.1719 0.0000
vt 0.3555 0.1719 0.0000
vt 0.3555 0.1719 0.0000
vt 0.3608 0.1519 0.0000
vt 0.3584 0.2720 0.0000
vt 0.3584 0.2720 0.0000
vt 0.3296 0.1631 0.0000
vt 0.3296 0.1631 0.0000
vt 0.3296 0.1631 0.0000
vt 0.3296 0.1631 0.0000
vt 0.2817 0.1353 0.0000
vt 0.2817 0.1353 0.0000
vt 0.2783 0.2837 0.0000
vt 0.2783 0.2837 0.0000
vt 0.2822 0.1475 0.0000
vt 0.2822 0.1475 0.0000
vt 0.2822 0.1475 0.0000
vt 0.2822 0.1475 0.0000
vt 0.3086 0.1509 0.0000
vt 0.3086 0.1509 0.0000
vt 0.3086 0.1509 0.0000
vt 0.3086 0.1509 0.0000
vt 0.3086 0.1509 0.0000
vt 0.3086 0.1509 0.0000
vt 0.3125 0.1348 0.0000
vt 0.3125 0.1348 0.0000
vt 0.3125 0.1348 0.0000
vt 0.3101 0.2832 0.0000
vt 0.3042 0.1694 0.0000
vt 0.3042 0.1694 0.0000
vt 0.3042 0.1694 0.0000
vt 0.3042 0.1694 0.0000
# 329 texture coords

g Object050
usemtl 19___Default
s 1
f 1/29/1 2/30/2 3/36/3 
f 4/6/4 5/40/5 6/17/6 
f 7/4/7 5/172/8 4/95/9 
f 8/39/10 5/173/11 7/92/12 
f 7/93/13 9/5/14 8/169/15 
f 10/16/16 8/170/17 9/94/18 
f 11/15/19 8/171/20 10/114/21 
f 12/9/22 9/14/23 7/12/24 
f 7/108/25 13/13/26 12/100/27 
s 2
f 12/101/28 13/112/29 14/49/30 
f 14/202/31 15/46/32 12/102/33 
s 4
f 9/8/34 12/103/35 15/188/36 
f 15/189/37 16/44/38 9/98/39 
f 10/7/40 9/99/41 16/177/42 
f 14/203/43 13/113/44 7/109/45 
f 7/110/46 17/48/47 14/204/48 
f 18/53/49 14/205/50 17/196/51 
s 2
f 14/206/52 18/224/53 19/52/54 
f 19/218/55 15/190/56 14/207/57 
s 4
f 16/178/58 15/191/59 19/219/60 
f 19/220/61 20/54/62 16/179/63 
f 16/180/64 20/230/65 21/78/66 
f 21/326/67 22/45/68 16/181/69 
f 16/182/70 22/183/71 10/96/72 
f 11/3/73 10/97/74 22/184/75 
f 17/197/76 7/111/77 4/10/78 
f 4/104/79 23/51/80 17/198/81 
f 17/199/82 23/213/83 24/56/84 
f 24/242/85 25/55/86 17/200/87 
f 17/201/88 25/236/89 18/225/90 
f 18/226/91 25/237/92 26/62/93 
s 2
f 26/270/94 27/60/95 18/227/96 
f 18/228/97 27/263/98 28/59/99 
f 28/259/100 19/221/101 18/229/102 
s 4
f 23/214/103 4/105/104 6/11/105 
f 6/106/106 29/50/107 23/215/108 
f 30/57/109 23/216/110 29/208/111 
f 30/247/112 24/243/113 23/217/114 
f 24/244/115 30/248/116 31/18/117 
f 31/115/118 32/19/119 24/245/120 
f 25/238/121 24/246/122 32/120/123 
f 32/121/124 33/20/125 25/239/126 
f 25/240/127 33/124/128 34/21/129 
f 34/128/130 26/271/131 25/241/132 
f 29/209/133 6/107/134 5/43/135 
f 5/175/136 35/47/137 29/210/138 
f 36/58/139 29/211/140 35/192/141 
f 36/253/142 30/249/143 29/212/144 
f 30/250/145 36/254/146 37/64/147 
f 37/279/148 38/38/149 30/251/150 
f 38/165/151 31/116/152 30/252/153 
f 38/166/154 39/33/155 31/117/156 
f 31/118/157 39/157/158 40/26/159 
f 40/146/160 32/122/161 31/119/162 
f 33/125/163 32/123/164 40/147/165 
s 2
f 35/193/166 5/176/167 8/42/168 
f 8/174/169 41/73/170 35/194/171 
f 36/255/172 35/195/173 41/310/174 
f 41/311/175 42/77/176 36/256/177 
f 36/257/178 42/325/179 43/70/180 
f 43/302/181 37/280/182 36/258/183 
f 43/303/184 44/2/185 37/281/186 
s 4
f 37/282/187 44/85/188 38/167/189 
f 38/168/190 44/86/191 39/158/192 
f 39/159/193 44/87/194 40/148/195 
f 40/149/196 44/88/197 45/27/198 
f 40/150/199 45/151/200 33/126/201 
f 34/129/202 33/127/203 45/152/204 
s 2
f 28/260/205 27/264/206 26/272/207 
f 26/273/208 46/61/209 28/261/210 
f 19/222/211 28/262/212 46/265/213 
s 4
f 46/266/214 20/231/215 19/223/216 
f 20/232/217 46/267/218 47/23/219 
f 47/134/220 48/63/221 20/233/222 
f 20/234/223 48/275/224 49/67/225 
f 49/293/226 21/327/227 20/235/228 
s 2
f 46/268/229 26/274/230 34/130/231 
f 34/131/232 47/135/233 46/269/234 
f 2/25/235 47/136/236 34/132/237 
s 4
f 47/137/238 2/143/239 1/24/240 
f 1/139/241 48/276/242 47/138/243 
f 48/277/244 1/140/245 50/66/246 
f 50/288/247 49/294/248 48/278/249 
f 51/71/250 49/295/251 50/289/252 
f 49/296/253 51/304/254 52/75/255 
f 52/316/256 21/328/257 49/297/258 
f 21/329/259 52/317/260 22/185/261 
s 2
f 34/133/262 53/31/263 2/144/264 
s 8
f 3/35/265 2/145/266 53/154/267 
f 53/155/268 54/34/269 3/162/270 
s 16
f 54/160/271 44/1/272 3/163/273 
f 3/164/274 44/79/275 1/141/276 
s 8
f 1/142/277 44/80/278 50/290/279 
f 50/291/280 44/81/281 55/68/282 
s 4
f 50/292/283 55/298/284 51/305/285 
f 56/65/286 51/306/287 55/299/288 
f 52/318/289 51/307/290 56/283/291 
s 8
f 42/76/292 52/319/293 56/284/294 
f 42/322/295 57/74/296 52/320/297 
s 4
f 22/186/298 52/321/299 57/312/300 
f 22/187/301 57/313/302 11/89/303 
s 16
f 45/27/304 44/82/305 54/161/306 
s 8
f 41/72/307 57/314/308 42/323/309 
f 11/90/310 57/315/311 41/308/312 
f 41/309/313 8/41/314 11/91/315 
f 56/285/316 43/69/317 42/324/318 
f 56/286/319 44/83/320 43/301/321 
f 55/300/322 44/84/323 56/287/324 
s 1
f 54/37/325 53/32/326 45/28/327 
s 4
f 45/153/328 53/156/329 34/22/330 
# 0 polygons - 110 triangles

