# 3ds Max Wavefront OBJ Exporter v0.97b - (c)2007 guruware
# File Created: 09.05.2015 21:59:43

mtllib Torsotop details.mtl

#
# object Object044
#

v  1.6899 -0.1662 0.1279
v  1.6904 -0.1108 0.0822
v  1.6669 0.0068 0.1617
v  1.6011 0.0624 0.1116
v  1.5066 0.0073 0.2070
v  1.5579 -0.0431 0.2423
v  1.6807 -0.0312 0.2025
v  1.6124 -0.0628 0.2534
v  1.6018 -0.2046 0.1899
v  1.6754 -0.0409 0.0554
v  1.4899 0.1587 -0.1069
v  1.4778 0.1948 -0.0148
v  1.3724 0.1495 0.0704
v  1.3258 0.0833 0.0869
v  1.4946 -0.0319 0.1845
v  1.6602 -0.0686 0.0065
v  1.4833 0.0864 -0.1816
v  1.4074 0.1294 -0.2346
v  1.3710 0.2046 -0.1486
v  1.4345 0.1750 -0.0502
v  1.3248 0.1349 0.0227
v  1.3294 0.1007 -0.1762
v  1.3376 0.1558 -0.1356
v  1.2809 0.1322 -0.0983
v  1.2409 0.1495 -0.0429
v  1.2327 0.1172 -0.0628
v  1.2654 0.0729 -0.1185
v  1.5375 -0.1934 0.1672
v  1.4789 -0.1346 0.1832
v  1.4332 -0.1630 0.1392
v  1.2543 -0.0225 0.0005
v  1.2735 0.0428 0.0429
v  1.2485 0.0697 0.0353
v  1.2093 0.0928 -0.0018
v  1.2017 0.0787 -0.0274
v  1.1965 0.0213 -0.0615
v  1.2317 0.0594 -0.0923
v  1.2892 0.0960 0.0276
v  1.2472 0.1221 -0.0219
v  1.3137 0.1152 0.0282
v  1.2131 0.1838 -0.1698
v  1.1902 0.1358 -0.2188
v  1.2387 0.1563 -0.2534
v  1.2482 0.2026 -0.1971
v  -1.6899 -0.1662 0.1279
v  -1.6807 -0.0312 0.2025
v  -1.6669 0.0068 0.1617
v  -1.6904 -0.1108 0.0822
v  -1.6011 0.0624 0.1116
v  -1.6754 -0.0409 0.0553
v  -1.6602 -0.0686 0.0065
v  -1.4833 0.0864 -0.1816
v  -1.4899 0.1587 -0.1069
v  -1.4074 0.1294 -0.2346
v  -1.5066 0.0073 0.2070
v  -1.4778 0.1948 -0.0148
v  -1.5579 -0.0431 0.2423
v  -1.4946 -0.0319 0.1845
v  -1.3258 0.0833 0.0869
v  -1.3724 0.1495 0.0704
v  -1.3248 0.1349 0.0227
v  -1.4345 0.1750 -0.0502
v  -1.6124 -0.0628 0.2534
v  -1.5375 -0.1934 0.1672
v  -1.4789 -0.1346 0.1832
v  -1.6018 -0.2046 0.1899
v  -1.4332 -0.1630 0.1392
v  -1.2543 -0.0225 0.0005
v  -1.2735 0.0428 0.0429
v  -1.2892 0.0960 0.0276
v  -1.3137 0.1152 0.0282
v  -1.2485 0.0697 0.0353
v  -1.2093 0.0928 -0.0018
v  -1.2472 0.1221 -0.0219
v  -1.2409 0.1495 -0.0429
v  -1.3710 0.2046 -0.1486
v  -1.2017 0.0787 -0.0274
v  -1.1965 0.0213 -0.0615
v  -1.2327 0.1172 -0.0628
v  -1.2317 0.0594 -0.0923
v  -1.2654 0.0729 -0.1185
v  -1.3294 0.1007 -0.1762
v  -1.3376 0.1558 -0.1356
v  -1.2809 0.1322 -0.0983
v  -1.2131 0.1838 -0.1698
v  -1.1902 0.1358 -0.2188
v  -1.2387 0.1563 -0.2534
v  -1.2482 0.2026 -0.1971
# 88 vertices

vn 0.9852 0.1048 0.1359
vn 0.9852 0.1048 0.1359
vn 0.9852 0.1048 0.1359
vn 0.7508 0.4660 -0.4682
vn 0.7508 0.4660 -0.4682
vn 0.7508 0.4660 -0.4682
vn 0.1651 0.7449 0.6464
vn 0.1802 0.7642 0.6193
vn 0.1862 0.7390 0.6475
vn 0.1862 0.7390 0.6475
vn 0.1747 0.7138 0.6782
vn 0.1651 0.7449 0.6464
vn 0.1377 0.7479 0.6493
vn 0.1651 0.7449 0.6464
vn 0.1747 0.7138 0.6782
vn 0.1747 0.7138 0.6782
vn 0.1377 0.7480 0.6493
vn 0.1377 0.7479 0.6493
vn 0.6493 -0.3444 0.6781
vn 0.6583 -0.3477 0.6676
vn 0.6436 -0.3423 0.6846
vn 0.6436 -0.3423 0.6846
vn 0.6358 -0.3394 0.6932
vn 0.6493 -0.3444 0.6781
vn 0.8237 0.3486 0.4473
vn 0.8237 0.3486 0.4473
vn 0.8237 0.3486 0.4473
vn 0.7761 0.6186 -0.1224
vn 0.8838 0.3287 -0.3329
vn 0.7345 0.5622 -0.3802
vn 0.7345 0.5622 -0.3802
vn 0.7854 0.6045 -0.1333
vn 0.7761 0.6186 -0.1224
vn 0.1862 0.7390 0.6475
vn 0.1802 0.7642 0.6193
vn 0.1774 0.7629 0.6217
vn 0.1774 0.7629 0.6217
vn 0.1746 0.7631 0.6222
vn 0.1862 0.7390 0.6475
vn -0.5102 0.5287 0.6784
vn -0.5668 0.5152 0.6429
vn -0.3534 0.4532 0.8184
vn -0.6444 -0.2237 0.7312
vn -0.5885 -0.0715 0.8053
vn -0.6012 -0.0570 0.7971
vn -0.6765 -0.0210 0.7362
vn -0.6444 -0.2237 0.7312
vn -0.6012 -0.0570 0.7971
vn 0.9398 0.0725 -0.3341
vn 0.8631 0.2741 -0.4242
vn 0.8838 0.3287 -0.3329
vn 0.8838 0.3287 -0.3329
vn 0.8631 0.2741 -0.4242
vn 0.7359 0.4515 -0.5046
vn 0.7359 0.4515 -0.5046
vn 0.7345 0.5622 -0.3802
vn 0.8838 0.3287 -0.3329
vn 0.7345 0.5622 -0.3802
vn 0.7359 0.4515 -0.5046
vn 0.5538 0.6586 -0.5095
vn 0.7345 0.5622 -0.3802
vn 0.5538 0.6586 -0.5095
vn 0.4561 0.7565 -0.4688
vn 0.3401 0.9383 0.0622
vn 0.3401 0.9383 0.0622
vn 0.3401 0.9383 0.0622
vn -0.2217 0.9748 -0.0232
vn -0.2655 0.9484 -0.1735
vn -0.1128 0.9203 -0.3747
vn -0.2655 0.9484 -0.1735
vn -0.2217 0.9748 -0.0232
vn -0.2175 0.9507 0.2212
vn -0.2175 0.9507 0.2212
vn -0.3500 0.9346 0.0638
vn -0.2655 0.9484 -0.1735
vn -0.5668 0.5152 0.6429
vn -0.5102 0.5287 0.6784
vn -0.6083 0.5346 0.5866
vn -0.6837 0.3931 -0.6148
vn -0.6371 0.4261 -0.6423
vn -0.6856 0.4308 -0.5869
vn -0.6856 0.4308 -0.5869
vn -0.7080 0.3165 -0.6314
vn -0.6837 0.3931 -0.6148
vn -0.6837 0.3931 -0.6148
vn -0.7080 0.3165 -0.6314
vn -0.6459 0.4084 -0.6450
vn -0.6459 0.4084 -0.6450
vn -0.6315 0.4827 -0.6069
vn -0.6837 0.3931 -0.6148
vn -0.1093 0.9307 0.3491
vn -0.1100 0.9307 0.3488
vn -0.2175 0.9507 0.2212
vn -0.2175 0.9507 0.2212
vn -0.2217 0.9748 -0.0232
vn -0.1093 0.9307 0.3491
vn -0.6129 0.4747 -0.6316
vn -0.6315 0.4827 -0.6069
vn -0.6459 0.4084 -0.6450
vn -0.6129 0.4747 -0.6316
vn -0.6459 0.4084 -0.6450
vn -0.6215 0.3933 -0.6775
vn -0.3060 -0.4289 0.8499
vn -0.3660 -0.3574 0.8593
vn -0.3288 -0.3817 0.8638
vn -0.3288 -0.3817 0.8638
vn -0.2815 -0.3980 0.8731
vn -0.3060 -0.4289 0.8499
vn -0.2815 -0.3980 0.8731
vn -0.2703 -0.4951 0.8257
vn -0.3060 -0.4289 0.8499
vn -0.2703 -0.4951 0.8257
vn -0.3629 -0.5645 0.7414
vn -0.3060 -0.4289 0.8499
vn -0.7153 -0.2605 0.6484
vn -0.6575 -0.0995 0.7468
vn -0.6084 -0.0169 0.7935
vn -0.6765 -0.0210 0.7362
vn -0.6012 -0.0570 0.7971
vn -0.6084 -0.0169 0.7935
vn -0.6084 -0.0169 0.7935
vn -0.6012 -0.0570 0.7971
vn -0.5885 -0.0715 0.8053
vn -0.5885 -0.0715 0.8053
vn -0.6219 -0.2355 0.7469
vn -0.6084 -0.0169 0.7935
vn -0.6084 -0.0169 0.7935
vn -0.6219 -0.2355 0.7469
vn -0.7153 -0.2605 0.6484
vn -0.7153 -0.2605 0.6484
vn -0.6219 -0.2355 0.7469
vn -0.6890 -0.2936 0.6626
vn -0.6890 -0.2936 0.6626
vn -0.8054 -0.3045 0.5085
vn -0.7153 -0.2605 0.6484
vn -0.7153 -0.2605 0.6484
vn -0.8054 -0.3045 0.5085
vn -0.8271 -0.2993 0.4758
vn -0.8271 -0.2993 0.4758
vn -0.7907 -0.2586 0.5550
vn -0.7153 -0.2605 0.6484
vn -0.8244 0.3045 -0.4771
vn -0.8574 0.3179 -0.4048
vn -0.7788 0.3227 -0.5379
vn -0.7788 0.3227 -0.5379
vn -0.7337 0.3183 -0.6004
vn -0.8244 0.3045 -0.4771
vn -0.5128 0.5935 0.6203
vn -0.7500 0.3769 0.5436
vn -0.5668 0.5152 0.6429
vn 0.0052 0.2751 0.9614
vn 0.0052 0.2751 0.9614
vn 0.0052 0.2751 0.9614
vn -0.2666 0.7125 0.6491
vn -0.2849 0.6486 0.7058
vn -0.5128 0.5935 0.6203
vn -0.5128 0.5935 0.6203
vn -0.4171 0.5812 0.6988
vn -0.2666 0.7125 0.6491
vn -0.4171 0.5812 0.6988
vn -0.5128 0.5935 0.6203
vn -0.5887 0.5651 0.5780
vn -0.5887 0.5651 0.5780
vn -0.5037 0.4538 0.7351
vn -0.4171 0.5812 0.6988
vn -0.5037 0.4538 0.7351
vn -0.5887 0.5651 0.5780
vn -0.6083 0.5346 0.5866
vn -0.6083 0.5346 0.5866
vn -0.5887 0.5651 0.5780
vn -0.5668 0.5152 0.6429
vn -0.5668 0.5152 0.6429
vn -0.5887 0.5651 0.5780
vn -0.5128 0.5935 0.6203
vn -0.7788 0.3227 -0.5379
vn -0.6594 0.3501 -0.6653
vn -0.7337 0.3183 -0.6004
vn -0.6913 0.7043 0.1614
vn -0.6913 0.7043 0.1614
vn -0.6913 0.7043 0.1614
vn -0.7752 -0.0749 0.6273
vn -0.7382 -0.0360 0.6737
vn -0.8115 -0.1173 0.5725
vn -0.8115 -0.1173 0.5725
vn -0.8335 -0.1460 0.5329
vn -0.7752 -0.0749 0.6273
vn -0.6143 0.6743 -0.4098
vn -0.5863 0.6990 -0.4094
vn -0.6267 0.6628 -0.4099
vn -0.6267 0.6628 -0.4099
vn -0.6582 0.6318 -0.4093
vn -0.6143 0.6743 -0.4098
vn 0.6797 0.4627 -0.5690
vn 0.6514 0.5279 -0.5450
vn 0.7023 0.4009 -0.5882
vn 0.7023 0.4009 -0.5882
vn 0.7214 0.3380 -0.6045
vn 0.6797 0.4627 -0.5690
vn 0.0197 0.8173 0.5759
vn 0.0114 0.8161 0.5778
vn 0.0289 0.8185 0.5737
vn 0.0289 0.8185 0.5737
vn 0.0347 0.8193 0.5723
vn 0.0197 0.8173 0.5759
vn -0.9911 0.1214 0.0545
vn -0.9709 0.1635 -0.1750
vn -0.9851 0.1483 -0.0873
vn -0.9851 0.1483 -0.0873
vn -0.9852 0.1048 0.1359
vn -0.9911 0.1214 0.0545
vn -0.7508 0.4660 -0.4682
vn -0.7508 0.4660 -0.4682
vn -0.7508 0.4660 -0.4682
vn -0.8237 0.3486 0.4473
vn -0.8237 0.3486 0.4473
vn -0.8237 0.3486 0.4473
vn -0.9398 0.0725 -0.3341
vn -0.8838 0.3287 -0.3329
vn -0.8631 0.2741 -0.4242
vn -0.7359 0.4516 -0.5046
vn -0.8631 0.2741 -0.4242
vn -0.8838 0.3287 -0.3329
vn -0.8838 0.3287 -0.3329
vn -0.7345 0.5622 -0.3802
vn -0.7359 0.4516 -0.5046
vn -0.7345 0.5622 -0.3802
vn -0.5538 0.6586 -0.5095
vn -0.7359 0.4516 -0.5046
vn -0.1862 0.7390 0.6475
vn -0.1802 0.7642 0.6193
vn -0.1651 0.7449 0.6464
vn -0.1774 0.7629 0.6217
vn -0.1802 0.7642 0.6193
vn -0.1862 0.7390 0.6475
vn -0.7761 0.6186 -0.1224
vn -0.7854 0.6045 -0.1333
vn -0.7345 0.5622 -0.3802
vn -0.7345 0.5622 -0.3802
vn -0.8838 0.3287 -0.3329
vn -0.7761 0.6186 -0.1224
vn -0.1651 0.7449 0.6464
vn -0.1747 0.7138 0.6782
vn -0.1862 0.7390 0.6475
vn 0.6765 -0.0210 0.7362
vn 0.6012 -0.0570 0.7971
vn 0.6444 -0.2238 0.7312
vn 0.6444 -0.2238 0.7312
vn 0.6012 -0.0570 0.7971
vn 0.5885 -0.0715 0.8053
vn 0.5102 0.5286 0.6784
vn 0.3534 0.4532 0.8184
vn 0.5668 0.5152 0.6429
vn -0.1862 0.7390 0.6475
vn -0.1746 0.7631 0.6222
vn -0.1774 0.7629 0.6217
vn 0.2655 0.9484 -0.1735
vn 0.3499 0.9346 0.0638
vn 0.2175 0.9507 0.2212
vn 0.2175 0.9507 0.2212
vn 0.2217 0.9748 -0.0232
vn 0.2655 0.9484 -0.1735
vn 0.2217 0.9748 -0.0232
vn 0.1128 0.9203 -0.3747
vn 0.2655 0.9484 -0.1735
vn -0.1747 0.7138 0.6782
vn -0.1651 0.7449 0.6464
vn -0.1377 0.7479 0.6493
vn -0.1377 0.7479 0.6493
vn -0.1377 0.7480 0.6493
vn -0.1747 0.7138 0.6782
vn 0.3060 -0.4289 0.8499
vn 0.2815 -0.3980 0.8731
vn 0.3288 -0.3817 0.8638
vn 0.2815 -0.3980 0.8731
vn 0.3060 -0.4289 0.8499
vn 0.2703 -0.4951 0.8257
vn 0.6765 -0.0210 0.7362
vn 0.6084 -0.0169 0.7935
vn 0.6012 -0.0570 0.7971
vn 0.5885 -0.0715 0.8053
vn 0.6012 -0.0570 0.7971
vn 0.6084 -0.0169 0.7935
vn -0.6436 -0.3423 0.6846
vn -0.6583 -0.3477 0.6676
vn -0.6493 -0.3444 0.6781
vn 0.3288 -0.3817 0.8638
vn 0.3660 -0.3574 0.8593
vn 0.3060 -0.4289 0.8499
vn -0.6493 -0.3444 0.6781
vn -0.6358 -0.3394 0.6932
vn -0.6436 -0.3423 0.6846
vn 0.2703 -0.4951 0.8257
vn 0.3060 -0.4289 0.8499
vn 0.3629 -0.5645 0.7414
vn 0.6084 -0.0169 0.7935
vn 0.6575 -0.0995 0.7468
vn 0.7153 -0.2605 0.6484
vn 0.7153 -0.2605 0.6484
vn 0.6219 -0.2355 0.7469
vn 0.6084 -0.0169 0.7935
vn 0.6084 -0.0169 0.7935
vn 0.6219 -0.2355 0.7469
vn 0.5885 -0.0715 0.8053
vn 0.5668 0.5152 0.6429
vn 0.7500 0.3769 0.5436
vn 0.5128 0.5935 0.6203
vn 0.5128 0.5935 0.6203
vn 0.5886 0.5651 0.5781
vn 0.5668 0.5152 0.6429
vn 0.5668 0.5152 0.6429
vn 0.5886 0.5651 0.5781
vn 0.6083 0.5347 0.5866
vn 0.6083 0.5347 0.5866
vn 0.5102 0.5286 0.6784
vn 0.5668 0.5152 0.6429
vn 0.6890 -0.2936 0.6627
vn 0.6219 -0.2355 0.7469
vn 0.7153 -0.2605 0.6484
vn -0.0052 0.2751 0.9614
vn -0.0052 0.2751 0.9614
vn -0.0052 0.2751 0.9614
vn 0.5128 0.5935 0.6203
vn 0.2849 0.6486 0.7058
vn 0.2666 0.7125 0.6491
vn 0.2666 0.7125 0.6491
vn 0.4171 0.5812 0.6988
vn 0.5128 0.5935 0.6203
vn 0.5886 0.5651 0.5781
vn 0.5128 0.5935 0.6203
vn 0.4171 0.5812 0.6988
vn 0.4171 0.5812 0.6988
vn 0.5037 0.4538 0.7351
vn 0.5886 0.5651 0.5781
vn 0.5037 0.4538 0.7351
vn 0.6083 0.5347 0.5866
vn 0.5886 0.5651 0.5781
vn 0.2175 0.9507 0.2212
vn 0.1101 0.9307 0.3488
vn 0.1093 0.9307 0.3491
vn 0.1093 0.9307 0.3491
vn 0.2217 0.9748 -0.0232
vn 0.2175 0.9507 0.2212
vn -0.3401 0.9383 0.0622
vn -0.3401 0.9383 0.0622
vn -0.3401 0.9383 0.0622
vn 0.7153 -0.2605 0.6484
vn 0.8054 -0.3044 0.5085
vn 0.6890 -0.2936 0.6627
vn 0.8271 -0.2993 0.4758
vn 0.8054 -0.3044 0.5085
vn 0.7153 -0.2605 0.6484
vn 0.7153 -0.2605 0.6484
vn 0.7907 -0.2585 0.5549
vn 0.8271 -0.2993 0.4758
vn 0.7788 0.3227 -0.5379
vn 0.8574 0.3179 -0.4048
vn 0.8244 0.3045 -0.4771
vn 0.6913 0.7043 0.1614
vn 0.6913 0.7043 0.1614
vn 0.6913 0.7043 0.1614
vn 0.8244 0.3045 -0.4771
vn 0.7337 0.3183 -0.6003
vn 0.7788 0.3227 -0.5379
vn 0.7788 0.3227 -0.5379
vn 0.7337 0.3183 -0.6003
vn 0.6594 0.3501 -0.6653
vn -0.4561 0.7565 -0.4688
vn -0.5538 0.6586 -0.5095
vn -0.7345 0.5622 -0.3802
vn 0.6856 0.4308 -0.5868
vn 0.6371 0.4261 -0.6423
vn 0.6837 0.3931 -0.6148
vn 0.6837 0.3931 -0.6148
vn 0.7080 0.3165 -0.6314
vn 0.6856 0.4308 -0.5868
vn 0.6459 0.4085 -0.6450
vn 0.7080 0.3165 -0.6314
vn 0.6837 0.3931 -0.6148
vn 0.6837 0.3931 -0.6148
vn 0.6315 0.4827 -0.6069
vn 0.6459 0.4085 -0.6450
vn 0.6129 0.4747 -0.6316
vn 0.6459 0.4085 -0.6450
vn 0.6315 0.4827 -0.6069
vn 0.6129 0.4747 -0.6316
vn 0.6215 0.3933 -0.6775
vn 0.6459 0.4085 -0.6450
vn 0.8115 -0.1173 0.5725
vn 0.7381 -0.0360 0.6737
vn 0.7752 -0.0749 0.6273
vn 0.7752 -0.0749 0.6273
vn 0.8335 -0.1460 0.5329
vn 0.8115 -0.1173 0.5725
vn 0.6267 0.6628 -0.4098
vn 0.5863 0.6990 -0.4094
vn 0.6143 0.6743 -0.4098
vn 0.6143 0.6743 -0.4098
vn 0.6582 0.6319 -0.4093
vn 0.6267 0.6628 -0.4098
vn -0.0289 0.8185 0.5737
vn -0.0114 0.8161 0.5778
vn -0.0197 0.8173 0.5759
vn -0.0197 0.8173 0.5759
vn -0.0347 0.8193 0.5723
vn -0.0289 0.8185 0.5737
# 405 vertex normals

vt 0.1426 0.7437 0.0000
vt 0.1421 0.7544 0.0000
vt 0.1299 0.7534 0.0000
vt 0.1245 0.7583 0.0000
vt 0.1177 0.7471 0.0000
vt 0.1221 0.7441 0.0000
vt 0.1304 0.7495 0.0000
vt 0.1260 0.7441 0.0000
vt 0.1323 0.7319 0.0000
vt 0.1367 0.7598 0.0000
vt 0.1133 0.7783 0.0000
vt 0.1108 0.7710 0.0000
vt 0.1030 0.7617 0.0000
vt 0.0996 0.7559 0.0000
vt 0.1162 0.7441 0.0000
vt 0.1387 0.7642 0.0000
vt 0.1177 0.7856 0.0000
vt 0.1064 0.7896 0.0000
vt 0.1011 0.7803 0.0000
vt 0.1074 0.7729 0.0000
vt 0.0981 0.7632 0.0000
vt 0.0967 0.7881 0.0000
vt 0.0962 0.7803 0.0000
vt 0.0898 0.7739 0.0000
vt 0.0908 0.7681 0.0000
vt 0.0879 0.7671 0.0000
vt 0.0830 0.7715 0.0000
vt 0.1216 0.7290 0.0000
vt 0.1152 0.7354 0.0000
vt 0.1094 0.7324 0.0000
vt 0.0874 0.7490 0.0000
vt 0.0933 0.7539 0.0000
vt 0.0918 0.7568 0.0000
vt 0.0884 0.7607 0.0000
vt 0.0869 0.7607 0.0000
vt 0.0815 0.7583 0.0000
vt 0.0820 0.7661 0.0000
vt 0.0952 0.7593 0.0000
vt 0.0913 0.7642 0.0000
vt 0.0972 0.7612 0.0000
vt 0.0845 0.7822 0.0000
vt 0.0791 0.7842 0.0000
vt 0.0840 0.7900 0.0000
vt 0.0864 0.7847 0.0000
# 44 texture coords

g Object044
usemtl 19___Default
s 1
f 1/1/1 2/2/2 3/3/3 
s 2
f 4/4/4 3/3/5 2/2/6 
s 4
f 3/3/7 4/4/8 5/5/9 
f 5/5/10 6/6/11 3/3/12 
f 7/7/13 3/3/14 6/6/15 
f 6/6/16 8/8/17 7/7/18 
s 1
f 7/7/19 8/8/20 9/9/21 
f 9/9/22 1/1/23 7/7/24 
s 8
f 2/2/25 10/10/26 4/4/27 
s 16
f 4/4/28 10/10/29 11/11/30 
f 11/11/31 12/12/32 4/4/33 
s 4
f 5/5/34 4/4/35 12/12/36 
f 12/12/37 13/13/38 5/5/39 
s 1
f 13/13/40 14/14/41 5/5/42 
s 2
f 5/5/43 14/14/44 15/15/45 
f 6/6/46 5/5/47 15/15/48 
s 16
f 2/2/49 16/16/50 10/10/51 
f 10/10/52 16/16/53 17/17/54 
f 17/17/55 11/11/56 10/10/57 
f 11/11/58 17/17/59 18/18/60 
f 11/11/61 18/18/62 19/19/63 
s 1
f 19/19/64 20/20/65 11/11/66 
s 2
f 20/20/67 12/12/68 11/11/69 
f 12/12/70 20/20/71 21/21/72 
f 21/21/73 13/13/74 12/12/75 
s 1
f 14/14/76 13/13/77 21/21/78 
s 4
f 19/19/79 18/18/80 22/22/81 
f 22/22/82 23/23/83 19/19/84 
f 19/19/85 23/23/86 24/24/87 
f 24/24/88 25/25/89 19/19/90 
s 2
f 19/19/91 25/25/92 21/21/93 
f 21/21/94 20/20/95 19/19/96 
s 4
f 26/26/97 25/25/98 24/24/99 
f 26/26/100 24/24/101 27/27/102 
s 8
f 28/28/103 9/9/104 8/8/105 
f 8/8/106 6/6/107 28/28/108 
f 6/6/109 29/29/110 28/28/111 
f 29/29/112 30/30/113 28/28/114 
s 2
f 31/31/115 30/30/116 29/29/117 
f 6/6/118 15/15/119 29/29/120 
f 29/29/121 15/15/122 14/14/123 
f 14/14/124 32/32/125 29/29/126 
f 29/29/127 32/32/128 31/31/129 
f 31/31/130 32/32/131 33/33/132 
f 33/33/133 34/34/134 31/31/135 
f 31/31/136 34/34/137 35/35/138 
f 35/35/139 36/36/140 31/31/141 
s 1
f 36/36/142 35/35/143 26/26/144 
f 26/26/145 37/37/146 36/36/147 
f 38/38/148 32/32/149 14/14/150 
s 4
f 33/33/151 32/32/152 38/38/153 
s 1
f 34/34/154 33/33/155 38/38/156 
f 38/38/157 39/39/158 34/34/159 
f 39/39/160 38/38/161 40/40/162 
f 40/40/163 25/25/164 39/39/165 
f 25/25/166 40/40/167 21/21/168 
f 21/21/169 40/40/170 14/14/171 
f 14/14/172 40/40/173 38/38/174 
f 26/26/175 27/27/176 37/37/177 
s 4
f 39/39/178 26/26/179 35/35/180 
s 1
f 27/27/181 24/24/182 41/41/183 
f 41/41/184 42/42/185 27/27/186 
s 2
f 43/43/187 42/42/188 41/41/189 
f 41/41/190 44/44/191 43/43/192 
s 1
f 43/43/193 44/44/194 23/23/195 
f 23/23/196 22/22/197 43/43/198 
s 4
f 44/44/199 41/41/200 24/24/201 
f 24/24/202 23/23/203 44/44/204 
s 1
f 45/1/205 46/7/206 47/3/207 
f 47/3/208 48/2/209 45/1/210 
s 2
f 48/2/211 47/3/212 49/4/213 
s 4
f 49/4/214 50/10/215 48/2/216 
s 8
f 48/2/217 50/10/218 51/16/219 
f 52/17/220 51/16/221 50/10/222 
f 50/10/223 53/11/224 52/17/225 
f 53/11/226 54/18/227 52/17/228 
s 16
f 55/5/229 49/4/230 47/3/231 
f 56/12/232 49/4/233 55/5/234 
s 8
f 49/4/235 56/12/236 53/11/237 
f 53/11/238 50/10/239 49/4/240 
s 16
f 47/3/241 57/6/242 55/5/243 
s 1
f 57/6/244 58/15/245 55/5/246 
f 55/5/247 58/15/248 59/14/249 
s 2
f 60/13/250 55/5/251 59/14/252 
s 16
f 55/5/253 60/13/254 56/12/255 
s 1
f 56/12/256 60/13/257 61/21/258 
f 61/21/259 62/20/260 56/12/261 
f 62/20/262 53/11/263 56/12/264 
s 16
f 57/6/265 47/3/266 46/7/267 
f 46/7/268 63/8/269 57/6/270 
s 2
f 64/28/271 57/6/272 63/8/273 
f 57/6/274 64/28/275 65/29/276 
s 1
f 57/6/277 65/29/278 58/15/279 
f 59/14/280 58/15/281 65/29/282 
f 66/9/283 63/8/284 46/7/285 
s 2
f 63/8/286 66/9/287 64/28/288 
s 1
f 46/7/289 45/1/290 66/9/291 
s 2
f 65/29/292 64/28/293 67/30/294 
s 1
f 65/29/295 67/30/296 68/31/297 
f 68/31/298 69/32/299 65/29/300 
f 65/29/301 69/32/302 59/14/303 
s 2
f 59/14/304 69/32/305 70/38/306 
f 70/38/307 71/40/308 59/14/309 
f 59/14/310 71/40/311 61/21/312 
f 61/21/313 60/13/314 59/14/315 
s 1
f 72/33/316 69/32/317 68/31/318 
s 4
f 72/33/319 70/38/320 69/32/321 
s 2
f 70/38/322 72/33/323 73/34/324 
f 73/34/325 74/39/326 70/38/327 
f 71/40/328 70/38/329 74/39/330 
f 74/39/331 75/25/332 71/40/333 
f 75/25/334 61/21/335 71/40/336 
s 1
f 61/21/337 75/25/338 76/19/339 
f 76/19/340 62/20/341 61/21/342 
s 2
f 53/11/343 62/20/344 76/19/345 
s 1
f 68/31/346 73/34/347 72/33/348 
f 77/35/349 73/34/350 68/31/351 
f 68/31/352 78/36/353 77/35/354 
s 2
f 79/26/355 77/35/356 78/36/357 
s 4
f 77/35/358 79/26/359 74/39/360 
s 2
f 78/36/361 80/37/362 79/26/363 
f 79/26/364 80/37/365 81/27/366 
s 8
f 76/19/367 54/18/368 53/11/369 
s 4
f 82/22/370 54/18/371 76/19/372 
f 76/19/373 83/23/374 82/22/375 
f 84/24/376 83/23/377 76/19/378 
f 76/19/379 75/25/380 84/24/381 
f 79/26/382 84/24/383 75/25/384 
f 79/26/385 81/27/386 84/24/387 
s 1
f 85/41/388 84/24/389 81/27/390 
f 81/27/391 86/42/392 85/41/393 
s 2
f 85/41/394 86/42/395 87/43/396 
f 87/43/397 88/44/398 85/41/399 
s 4
f 84/24/400 85/41/401 88/44/402 
f 88/44/403 83/23/404 84/24/405 
# 0 polygons - 135 triangles

